
      <svg xmlns="http://www.w3.org/2000/svg" version="1.1" width="2000" height="1000" style="display: block;"><polygon stroke-linejoin="round" stroke-miterlimit="1" stroke-width="1" points="2088.65869140625,950.954345703125 2135.081298828125,1104.349609375 2097.1375732421875,1086.6258544921875" style="fill:#61c3af;stroke:#61c3af;"></polygon><polygon stroke-linejoin="round" stroke-miterlimit="1" stroke-width="1" points="2021.245361328125,952.4562072753906 2135.081298828125,1104.349609375 2088.65869140625,950.954345703125" style="fill:#b2ffaf;stroke:#b2ffaf;"></polygon><polygon stroke-linejoin="round" stroke-miterlimit="1" stroke-width="1" points="2168.673828125,805.5188293457031 2021.245361328125,952.4562072753906 2088.65869140625,950.954345703125" style="fill:#b9ffaf;stroke:#b9ffaf;"></polygon><polygon stroke-linejoin="round" stroke-miterlimit="1" stroke-width="1" points="2061.9334716796875,801.8316650390625 2021.245361328125,952.4562072753906 2168.673828125,805.5188293457031" style="fill:#93efaf;stroke:#93efaf;"></polygon><polygon stroke-linejoin="round" stroke-miterlimit="1" stroke-width="1" points="2230.0755615234375,663.0668029785156 2061.9334716796875,801.8316650390625 2168.673828125,805.5188293457031" style="fill:#89e7af;stroke:#89e7af;"></polygon><polygon stroke-linejoin="round" stroke-miterlimit="1" stroke-width="1" points="2001.0958862304688,664.8633728027344 2061.9334716796875,801.8316650390625 2230.0755615234375,663.0668029785156" style="fill:#6ecfaf;stroke:#6ecfaf;"></polygon><polygon stroke-linejoin="round" stroke-miterlimit="1" stroke-width="1" points="2093.99365234375,511.86466693878174 2001.0958862304688,664.8633728027344 2230.0755615234375,663.0668029785156" style="fill:#61c4af;stroke:#61c4af;"></polygon><polygon stroke-linejoin="round" stroke-miterlimit="1" stroke-width="1" points="1932.0274047851562,496.6883234977722 2001.0958862304688,664.8633728027344 2093.99365234375,511.86466693878174" style="fill:#7bdaaf;stroke:#7bdaaf;"></polygon><polygon stroke-linejoin="round" stroke-miterlimit="1" stroke-width="1" points="2178.939208984375,362.4019775390625 1932.0274047851562,496.6883234977722 2093.99365234375,511.86466693878174" style="fill:#6ecfaf;stroke:#6ecfaf;"></polygon><polygon stroke-linejoin="round" stroke-miterlimit="1" stroke-width="1" points="2169.0037841796875,355.6581573486328 1932.0274047851562,496.6883234977722 2178.939208984375,362.4019775390625" style="fill:#6bccaf;stroke:#6bccaf;"></polygon><polygon stroke-linejoin="round" stroke-miterlimit="1" stroke-width="1" points="2256.1754150390625,202.84967041015625 2169.0037841796875,355.6581573486328 2178.939208984375,362.4019775390625" style="fill:#6ecfaf;stroke:#6ecfaf;"></polygon><polygon stroke-linejoin="round" stroke-miterlimit="1" stroke-width="1" points="1941.11572265625,209.45639038085938 2169.0037841796875,355.6581573486328 2256.1754150390625,202.84967041015625" style="fill:#63c5af;stroke:#63c5af;"></polygon><polygon stroke-linejoin="round" stroke-miterlimit="1" stroke-width="1" points="2310.5006103515625,35.57843017578125 1941.11572265625,209.45639038085938 2256.1754150390625,202.84967041015625" style="fill:#53b7af;stroke:#53b7af;"></polygon><polygon stroke-linejoin="round" stroke-miterlimit="1" stroke-width="1" points="2166.3798828125,64.21575927734375 1941.11572265625,209.45639038085938 2310.5006103515625,35.57843017578125" style="fill:#56b9af;stroke:#56b9af;"></polygon><polygon stroke-linejoin="round" stroke-miterlimit="1" stroke-width="1" points="2312.6827392578125,-111.25537109375 2166.3798828125,64.21575927734375 2310.5006103515625,35.57843017578125" style="fill:#5cbfaf;stroke:#5cbfaf;"></polygon><polygon stroke-linejoin="round" stroke-miterlimit="1" stroke-width="1" points="2161.318115234375,-88.177001953125 2166.3798828125,64.21575927734375 2312.6827392578125,-111.25537109375" style="fill:#5abeaf;stroke:#5abeaf;"></polygon><polygon stroke-linejoin="round" stroke-miterlimit="1" stroke-width="1" points="2021.245361328125,952.4562072753906 1953.396240234375,1113.131103515625 2135.081298828125,1104.349609375" style="fill:#67c9af;stroke:#67c9af;"></polygon><polygon stroke-linejoin="round" stroke-miterlimit="1" stroke-width="1" points="1842.3834838867188,953.0071411132812 1953.396240234375,1113.131103515625 2021.245361328125,952.4562072753906" style="fill:#69caaf;stroke:#69caaf;"></polygon><polygon stroke-linejoin="round" stroke-miterlimit="1" stroke-width="1" points="2061.9334716796875,801.8316650390625 1842.3834838867188,953.0071411132812 2021.245361328125,952.4562072753906" style="fill:#65c7af;stroke:#65c7af;"></polygon><polygon stroke-linejoin="round" stroke-miterlimit="1" stroke-width="1" points="1989.6870727539062,805.8641357421875 1842.3834838867188,953.0071411132812 2061.9334716796875,801.8316650390625" style="fill:#379eaf;stroke:#379eaf;"></polygon><polygon stroke-linejoin="round" stroke-miterlimit="1" stroke-width="1" points="2001.0958862304688,664.8633728027344 1989.6870727539062,805.8641357421875 2061.9334716796875,801.8316650390625" style="fill:#3199af;stroke:#3199af;"></polygon><polygon stroke-linejoin="round" stroke-miterlimit="1" stroke-width="1" points="1818.24658203125,661.7664031982422 1989.6870727539062,805.8641357421875 2001.0958862304688,664.8633728027344" style="fill:#91eeaf;stroke:#91eeaf;"></polygon><polygon stroke-linejoin="round" stroke-miterlimit="1" stroke-width="1" points="1932.0274047851562,496.6883234977722 1818.24658203125,661.7664031982422 2001.0958862304688,664.8633728027344" style="fill:#87e5af;stroke:#87e5af;"></polygon><polygon stroke-linejoin="round" stroke-miterlimit="1" stroke-width="1" points="1813.4558715820312,496.7545676231384 1818.24658203125,661.7664031982422 1932.0274047851562,496.6883234977722" style="fill:#78d7af;stroke:#78d7af;"></polygon><polygon stroke-linejoin="round" stroke-miterlimit="1" stroke-width="1" points="2169.0037841796875,355.6581573486328 1813.4558715820312,496.7545676231384 1932.0274047851562,496.6883234977722" style="fill:#73d3af;stroke:#73d3af;"></polygon><polygon stroke-linejoin="round" stroke-miterlimit="1" stroke-width="1" points="1830.2058715820312,335.36602783203125 1813.4558715820312,496.7545676231384 2169.0037841796875,355.6581573486328" style="fill:#70d1af;stroke:#70d1af;"></polygon><polygon stroke-linejoin="round" stroke-miterlimit="1" stroke-width="1" points="1941.11572265625,209.45639038085938 1830.2058715820312,335.36602783203125 2169.0037841796875,355.6581573486328" style="fill:#72d2af;stroke:#72d2af;"></polygon><polygon stroke-linejoin="round" stroke-miterlimit="1" stroke-width="1" points="1872.3672485351562,211.5784912109375 1830.2058715820312,335.36602783203125 1941.11572265625,209.45639038085938" style="fill:#6ccdaf;stroke:#6ccdaf;"></polygon><polygon stroke-linejoin="round" stroke-miterlimit="1" stroke-width="1" points="2166.3798828125,64.21575927734375 1872.3672485351562,211.5784912109375 1941.11572265625,209.45639038085938" style="fill:#68caaf;stroke:#68caaf;"></polygon><polygon stroke-linejoin="round" stroke-miterlimit="1" stroke-width="1" points="1886.8445434570312,42.81689453125 1872.3672485351562,211.5784912109375 2166.3798828125,64.21575927734375" style="fill:#4bb0af;stroke:#4bb0af;"></polygon><polygon stroke-linejoin="round" stroke-miterlimit="1" stroke-width="1" points="2161.318115234375,-88.177001953125 1886.8445434570312,42.81689453125 2166.3798828125,64.21575927734375" style="fill:#74d4af;stroke:#74d4af;"></polygon><polygon stroke-linejoin="round" stroke-miterlimit="1" stroke-width="1" points="1869.0629272460938,-106.4017333984375 1886.8445434570312,42.81689453125 2161.318115234375,-88.177001953125" style="fill:#6dceaf;stroke:#6dceaf;"></polygon><polygon stroke-linejoin="round" stroke-miterlimit="1" stroke-width="1" points="1842.3834838867188,953.0071411132812 1866.6561279296875,1085.38330078125 1953.396240234375,1113.131103515625" style="fill:#7eddaf;stroke:#7eddaf;"></polygon><polygon stroke-linejoin="round" stroke-miterlimit="1" stroke-width="1" points="1798.0474243164062,964.7797546386719 1866.6561279296875,1085.38330078125 1842.3834838867188,953.0071411132812" style="fill:#caffaf;stroke:#caffaf;"></polygon><polygon stroke-linejoin="round" stroke-miterlimit="1" stroke-width="1" points="1989.6870727539062,805.8641357421875 1798.0474243164062,964.7797546386719 1842.3834838867188,953.0071411132812" style="fill:#dcffaf;stroke:#dcffaf;"></polygon><polygon stroke-linejoin="round" stroke-miterlimit="1" stroke-width="1" points="1646.35009765625,814.6331176757812 1798.0474243164062,964.7797546386719 1989.6870727539062,805.8641357421875" style="fill:#8be8af;stroke:#8be8af;"></polygon><polygon stroke-linejoin="round" stroke-miterlimit="1" stroke-width="1" points="1818.24658203125,661.7664031982422 1646.35009765625,814.6331176757812 1989.6870727539062,805.8641357421875" style="fill:#80dfaf;stroke:#80dfaf;"></polygon><polygon stroke-linejoin="round" stroke-miterlimit="1" stroke-width="1" points="1686.2026977539062,661.8467102050781 1646.35009765625,814.6331176757812 1818.24658203125,661.7664031982422" style="fill:#7ddcaf;stroke:#7ddcaf;"></polygon><polygon stroke-linejoin="round" stroke-miterlimit="1" stroke-width="1" points="1813.4558715820312,496.7545676231384 1686.2026977539062,661.8467102050781 1818.24658203125,661.7664031982422" style="fill:#71d1af;stroke:#71d1af;"></polygon><polygon stroke-linejoin="round" stroke-miterlimit="1" stroke-width="1" points="1641.6596069335938,487.0569906234741 1686.2026977539062,661.8467102050781 1813.4558715820312,496.7545676231384" style="fill:#72d2af;stroke:#72d2af;"></polygon><polygon stroke-linejoin="round" stroke-miterlimit="1" stroke-width="1" points="1830.2058715820312,335.36602783203125 1641.6596069335938,487.0569906234741 1813.4558715820312,496.7545676231384" style="fill:#69caaf;stroke:#69caaf;"></polygon><polygon stroke-linejoin="round" stroke-miterlimit="1" stroke-width="1" points="1830.83203125,347.25221252441406 1641.6596069335938,487.0569906234741 1830.2058715820312,335.36602783203125" style="fill:#248eaf;stroke:#248eaf;"></polygon><polygon stroke-linejoin="round" stroke-miterlimit="1" stroke-width="1" points="1872.3672485351562,211.5784912109375 1830.83203125,347.25221252441406 1830.2058715820312,335.36602783203125" style="fill:#248eaf;stroke:#248eaf;"></polygon><polygon stroke-linejoin="round" stroke-miterlimit="1" stroke-width="1" points="1738.88818359375,192.7666015625 1830.83203125,347.25221252441406 1872.3672485351562,211.5784912109375" style="fill:#8ae8af;stroke:#8ae8af;"></polygon><polygon stroke-linejoin="round" stroke-miterlimit="1" stroke-width="1" points="1886.8445434570312,42.81689453125 1738.88818359375,192.7666015625 1872.3672485351562,211.5784912109375" style="fill:#67c9af;stroke:#67c9af;"></polygon><polygon stroke-linejoin="round" stroke-miterlimit="1" stroke-width="1" points="1703.1589965820312,64.87368774414062 1738.88818359375,192.7666015625 1886.8445434570312,42.81689453125" style="fill:#6ccdaf;stroke:#6ccdaf;"></polygon><polygon stroke-linejoin="round" stroke-miterlimit="1" stroke-width="1" points="1869.0629272460938,-106.4017333984375 1703.1589965820312,64.87368774414062 1886.8445434570312,42.81689453125" style="fill:#6dceaf;stroke:#6dceaf;"></polygon><polygon stroke-linejoin="round" stroke-miterlimit="1" stroke-width="1" points="1779.590087890625,-102.26617431640625 1703.1589965820312,64.87368774414062 1869.0629272460938,-106.4017333984375" style="fill:#73d3af;stroke:#73d3af;"></polygon><polygon stroke-linejoin="round" stroke-miterlimit="1" stroke-width="1" points="1798.0474243164062,964.7797546386719 1580.0856323242188,1098.5086059570312 1866.6561279296875,1085.38330078125" style="fill:#a4feaf;stroke:#a4feaf;"></polygon><polygon stroke-linejoin="round" stroke-miterlimit="1" stroke-width="1" points="1508.9981384277344,947.3396301269531 1580.0856323242188,1098.5086059570312 1798.0474243164062,964.7797546386719" style="fill:#a4feaf;stroke:#a4feaf;"></polygon><polygon stroke-linejoin="round" stroke-miterlimit="1" stroke-width="1" points="1646.35009765625,814.6331176757812 1508.9981384277344,947.3396301269531 1798.0474243164062,964.7797546386719" style="fill:#a1fcaf;stroke:#a1fcaf;"></polygon><polygon stroke-linejoin="round" stroke-miterlimit="1" stroke-width="1" points="1482.9576416015625,814.2380981445312 1508.9981384277344,947.3396301269531 1646.35009765625,814.6331176757812" style="fill:#e0ffaf;stroke:#e0ffaf;"></polygon><polygon stroke-linejoin="round" stroke-miterlimit="1" stroke-width="1" points="1686.2026977539062,661.8467102050781 1482.9576416015625,814.2380981445312 1646.35009765625,814.6331176757812" style="fill:#c0ffaf;stroke:#c0ffaf;"></polygon><polygon stroke-linejoin="round" stroke-miterlimit="1" stroke-width="1" points="1511.5894775390625,635.6790313720703 1482.9576416015625,814.2380981445312 1686.2026977539062,661.8467102050781" style="fill:#bcffaf;stroke:#bcffaf;"></polygon><polygon stroke-linejoin="round" stroke-miterlimit="1" stroke-width="1" points="1641.6596069335938,487.0569906234741 1511.5894775390625,635.6790313720703 1686.2026977539062,661.8467102050781" style="fill:#98f3af;stroke:#98f3af;"></polygon><polygon stroke-linejoin="round" stroke-miterlimit="1" stroke-width="1" points="1719.9034423828125,499.253419816494 1511.5894775390625,635.6790313720703 1641.6596069335938,487.0569906234741" style="fill:#248eaf;stroke:#248eaf;"></polygon><polygon stroke-linejoin="round" stroke-miterlimit="1" stroke-width="1" points="1830.83203125,347.25221252441406 1719.9034423828125,499.253419816494 1641.6596069335938,487.0569906234741" style="fill:#248eaf;stroke:#248eaf;"></polygon><polygon stroke-linejoin="round" stroke-miterlimit="1" stroke-width="1" points="1609.5553588867188,336.04876708984375 1719.9034423828125,499.253419816494 1830.83203125,347.25221252441406" style="fill:#87e5af;stroke:#87e5af;"></polygon><polygon stroke-linejoin="round" stroke-miterlimit="1" stroke-width="1" points="1738.88818359375,192.7666015625 1609.5553588867188,336.04876708984375 1830.83203125,347.25221252441406" style="fill:#5bbeaf;stroke:#5bbeaf;"></polygon><polygon stroke-linejoin="round" stroke-miterlimit="1" stroke-width="1" points="1719.5215454101562,185.18679809570312 1609.5553588867188,336.04876708984375 1738.88818359375,192.7666015625" style="fill:#64c6af;stroke:#64c6af;"></polygon><polygon stroke-linejoin="round" stroke-miterlimit="1" stroke-width="1" points="1703.1589965820312,64.87368774414062 1719.5215454101562,185.18679809570312 1738.88818359375,192.7666015625" style="fill:#248eaf;stroke:#248eaf;"></polygon><polygon stroke-linejoin="round" stroke-miterlimit="1" stroke-width="1" points="1480.003662109375,50.536407470703125 1719.5215454101562,185.18679809570312 1703.1589965820312,64.87368774414062" style="fill:#359caf;stroke:#359caf;"></polygon><polygon stroke-linejoin="round" stroke-miterlimit="1" stroke-width="1" points="1779.590087890625,-102.26617431640625 1480.003662109375,50.536407470703125 1703.1589965820312,64.87368774414062" style="fill:#7cdbaf;stroke:#7cdbaf;"></polygon><polygon stroke-linejoin="round" stroke-miterlimit="1" stroke-width="1" points="1634.9987182617188,-110.68280029296875 1480.003662109375,50.536407470703125 1779.590087890625,-102.26617431640625" style="fill:#63c5af;stroke:#63c5af;"></polygon><polygon stroke-linejoin="round" stroke-miterlimit="1" stroke-width="1" points="1508.9981384277344,947.3396301269531 1345.0095825195312,1112.6358032226562 1580.0856323242188,1098.5086059570312" style="fill:#c8ffaf;stroke:#c8ffaf;"></polygon><polygon stroke-linejoin="round" stroke-miterlimit="1" stroke-width="1" points="1496.9719543457031,949.7445068359375 1345.0095825195312,1112.6358032226562 1508.9981384277344,947.3396301269531" style="fill:#e1ffaf;stroke:#e1ffaf;"></polygon><polygon stroke-linejoin="round" stroke-miterlimit="1" stroke-width="1" points="1482.9576416015625,814.2380981445312 1496.9719543457031,949.7445068359375 1508.9981384277344,947.3396301269531" style="fill:#dbffaf;stroke:#dbffaf;"></polygon><polygon stroke-linejoin="round" stroke-miterlimit="1" stroke-width="1" points="1484.2276000976562,803.4034729003906 1496.9719543457031,949.7445068359375 1482.9576416015625,814.2380981445312" style="fill:#248eaf;stroke:#248eaf;"></polygon><polygon stroke-linejoin="round" stroke-miterlimit="1" stroke-width="1" points="1511.5894775390625,635.6790313720703 1484.2276000976562,803.4034729003906 1482.9576416015625,814.2380981445312" style="fill:#248eaf;stroke:#248eaf;"></polygon><polygon stroke-linejoin="round" stroke-miterlimit="1" stroke-width="1" points="1330.203369140625,651.9961242675781 1484.2276000976562,803.4034729003906 1511.5894775390625,635.6790313720703" style="fill:#dbffaf;stroke:#dbffaf;"></polygon><polygon stroke-linejoin="round" stroke-miterlimit="1" stroke-width="1" points="1719.9034423828125,499.253419816494 1330.203369140625,651.9961242675781 1511.5894775390625,635.6790313720703" style="fill:#96f2af;stroke:#96f2af;"></polygon><polygon stroke-linejoin="round" stroke-miterlimit="1" stroke-width="1" points="1414.1599731445312,504.9514193534851 1330.203369140625,651.9961242675781 1719.9034423828125,499.253419816494" style="fill:#9cf8af;stroke:#9cf8af;"></polygon><polygon stroke-linejoin="round" stroke-miterlimit="1" stroke-width="1" points="1609.5553588867188,336.04876708984375 1414.1599731445312,504.9514193534851 1719.9034423828125,499.253419816494" style="fill:#98f4af;stroke:#98f4af;"></polygon><polygon stroke-linejoin="round" stroke-miterlimit="1" stroke-width="1" points="1348.0528564453125,361.9061279296875 1414.1599731445312,504.9514193534851 1609.5553588867188,336.04876708984375" style="fill:#93f0af;stroke:#93f0af;"></polygon><polygon stroke-linejoin="round" stroke-miterlimit="1" stroke-width="1" points="1719.5215454101562,185.18679809570312 1348.0528564453125,361.9061279296875 1609.5553588867188,336.04876708984375" style="fill:#7ddcaf;stroke:#7ddcaf;"></polygon><polygon stroke-linejoin="round" stroke-miterlimit="1" stroke-width="1" points="1365.9981994628906,189.79971313476562 1348.0528564453125,361.9061279296875 1719.5215454101562,185.18679809570312" style="fill:#8eebaf;stroke:#8eebaf;"></polygon><polygon stroke-linejoin="round" stroke-miterlimit="1" stroke-width="1" points="1480.003662109375,50.536407470703125 1365.9981994628906,189.79971313476562 1719.5215454101562,185.18679809570312" style="fill:#83e1af;stroke:#83e1af;"></polygon><polygon stroke-linejoin="round" stroke-miterlimit="1" stroke-width="1" points="1533.911865234375,45.52838134765625 1365.9981994628906,189.79971313476562 1480.003662109375,50.536407470703125" style="fill:#248eaf;stroke:#248eaf;"></polygon><polygon stroke-linejoin="round" stroke-miterlimit="1" stroke-width="1" points="1634.9987182617188,-110.68280029296875 1533.911865234375,45.52838134765625 1480.003662109375,50.536407470703125" style="fill:#248eaf;stroke:#248eaf;"></polygon><polygon stroke-linejoin="round" stroke-miterlimit="1" stroke-width="1" points="1462.9579467773438,-111.84234619140625 1533.911865234375,45.52838134765625 1634.9987182617188,-110.68280029296875" style="fill:#76d6af;stroke:#76d6af;"></polygon><polygon stroke-linejoin="round" stroke-miterlimit="1" stroke-width="1" points="1496.9719543457031,949.7445068359375 1389.3411865234375,1114.6763916015625 1345.0095825195312,1112.6358032226562" style="fill:#248eaf;stroke:#248eaf;"></polygon><polygon stroke-linejoin="round" stroke-miterlimit="1" stroke-width="1" points="1419.804931640625,961.3722839355469 1389.3411865234375,1114.6763916015625 1496.9719543457031,949.7445068359375" style="fill:#ffffaf;stroke:#ffffaf;"></polygon><polygon stroke-linejoin="round" stroke-miterlimit="1" stroke-width="1" points="1484.2276000976562,803.4034729003906 1419.804931640625,961.3722839355469 1496.9719543457031,949.7445068359375" style="fill:#ffffaf;stroke:#ffffaf;"></polygon><polygon stroke-linejoin="round" stroke-miterlimit="1" stroke-width="1" points="1415.3743286132812,795.9364318847656 1419.804931640625,961.3722839355469 1484.2276000976562,803.4034729003906" style="fill:#f7ffaf;stroke:#f7ffaf;"></polygon><polygon stroke-linejoin="round" stroke-miterlimit="1" stroke-width="1" points="1330.203369140625,651.9961242675781 1415.3743286132812,795.9364318847656 1484.2276000976562,803.4034729003906" style="fill:#e3ffaf;stroke:#e3ffaf;"></polygon><polygon stroke-linejoin="round" stroke-miterlimit="1" stroke-width="1" points="1220.5813598632812,660.0845794677734 1415.3743286132812,795.9364318847656 1330.203369140625,651.9961242675781" style="fill:#ffffaf;stroke:#ffffaf;"></polygon><polygon stroke-linejoin="round" stroke-miterlimit="1" stroke-width="1" points="1414.1599731445312,504.9514193534851 1220.5813598632812,660.0845794677734 1330.203369140625,651.9961242675781" style="fill:#c5ffaf;stroke:#c5ffaf;"></polygon><polygon stroke-linejoin="round" stroke-miterlimit="1" stroke-width="1" points="1186.1275634765625,512.171314239502 1220.5813598632812,660.0845794677734 1414.1599731445312,504.9514193534851" style="fill:#deffaf;stroke:#deffaf;"></polygon><polygon stroke-linejoin="round" stroke-miterlimit="1" stroke-width="1" points="1348.0528564453125,361.9061279296875 1186.1275634765625,512.171314239502 1414.1599731445312,504.9514193534851" style="fill:#9ffaaf;stroke:#9ffaaf;"></polygon><polygon stroke-linejoin="round" stroke-miterlimit="1" stroke-width="1" points="1234.6064758300781,342.6475372314453 1186.1275634765625,512.171314239502 1348.0528564453125,361.9061279296875" style="fill:#abffaf;stroke:#abffaf;"></polygon><polygon stroke-linejoin="round" stroke-miterlimit="1" stroke-width="1" points="1365.9981994628906,189.79971313476562 1234.6064758300781,342.6475372314453 1348.0528564453125,361.9061279296875" style="fill:#9af5af;stroke:#9af5af;"></polygon><polygon stroke-linejoin="round" stroke-miterlimit="1" stroke-width="1" points="1267.4327392578125,189.55453491210938 1234.6064758300781,342.6475372314453 1365.9981994628906,189.79971313476562" style="fill:#8ae7af;stroke:#8ae7af;"></polygon><polygon stroke-linejoin="round" stroke-miterlimit="1" stroke-width="1" points="1533.911865234375,45.52838134765625 1267.4327392578125,189.55453491210938 1365.9981994628906,189.79971313476562" style="fill:#7cdbaf;stroke:#7cdbaf;"></polygon><polygon stroke-linejoin="round" stroke-miterlimit="1" stroke-width="1" points="1419.9925537109375,60.01678466796875 1267.4327392578125,189.55453491210938 1533.911865234375,45.52838134765625" style="fill:#3da4af;stroke:#3da4af;"></polygon><polygon stroke-linejoin="round" stroke-miterlimit="1" stroke-width="1" points="1462.9579467773438,-111.84234619140625 1419.9925537109375,60.01678466796875 1533.911865234375,45.52838134765625" style="fill:#89e6af;stroke:#89e6af;"></polygon><polygon stroke-linejoin="round" stroke-miterlimit="1" stroke-width="1" points="1406.4797973632812,-114.80279541015625 1419.9925537109375,60.01678466796875 1462.9579467773438,-111.84234619140625" style="fill:#84e2af;stroke:#84e2af;"></polygon><polygon stroke-linejoin="round" stroke-miterlimit="1" stroke-width="1" points="1419.804931640625,961.3722839355469 1206.7735595703125,1114.3496704101562 1389.3411865234375,1114.6763916015625" style="fill:#ffffaf;stroke:#ffffaf;"></polygon><polygon stroke-linejoin="round" stroke-miterlimit="1" stroke-width="1" points="1030.0838775634766,964.9754943847656 1206.7735595703125,1114.3496704101562 1419.804931640625,961.3722839355469" style="fill:#ffffaf;stroke:#ffffaf;"></polygon><polygon stroke-linejoin="round" stroke-miterlimit="1" stroke-width="1" points="1415.3743286132812,795.9364318847656 1030.0838775634766,964.9754943847656 1419.804931640625,961.3722839355469" style="fill:#ffffaf;stroke:#ffffaf;"></polygon><polygon stroke-linejoin="round" stroke-miterlimit="1" stroke-width="1" points="1098.4968719482422,813.7254028320312 1030.0838775634766,964.9754943847656 1415.3743286132812,795.9364318847656" style="fill:#ffffaf;stroke:#ffffaf;"></polygon><polygon stroke-linejoin="round" stroke-miterlimit="1" stroke-width="1" points="1220.5813598632812,660.0845794677734 1098.4968719482422,813.7254028320312 1415.3743286132812,795.9364318847656" style="fill:#ffffaf;stroke:#ffffaf;"></polygon><polygon stroke-linejoin="round" stroke-miterlimit="1" stroke-width="1" points="1269.9795532226562,635.0193023681641 1098.4968719482422,813.7254028320312 1220.5813598632812,660.0845794677734" style="fill:#248eaf;stroke:#248eaf;"></polygon><polygon stroke-linejoin="round" stroke-miterlimit="1" stroke-width="1" points="1186.1275634765625,512.171314239502 1269.9795532226562,635.0193023681641 1220.5813598632812,660.0845794677734" style="fill:#248eaf;stroke:#248eaf;"></polygon><polygon stroke-linejoin="round" stroke-miterlimit="1" stroke-width="1" points="1269.9273986816406,512.3071889877319 1269.9795532226562,635.0193023681641 1186.1275634765625,512.171314239502" style="fill:#248eaf;stroke:#248eaf;"></polygon><polygon stroke-linejoin="round" stroke-miterlimit="1" stroke-width="1" points="1234.6064758300781,342.6475372314453 1269.9273986816406,512.3071889877319 1186.1275634765625,512.171314239502" style="fill:#248eaf;stroke:#248eaf;"></polygon><polygon stroke-linejoin="round" stroke-miterlimit="1" stroke-width="1" points="1182.43505859375,363.4357604980469 1269.9273986816406,512.3071889877319 1234.6064758300781,342.6475372314453" style="fill:#acffaf;stroke:#acffaf;"></polygon><polygon stroke-linejoin="round" stroke-miterlimit="1" stroke-width="1" points="1267.4327392578125,189.55453491210938 1182.43505859375,363.4357604980469 1234.6064758300781,342.6475372314453" style="fill:#97f3af;stroke:#97f3af;"></polygon><polygon stroke-linejoin="round" stroke-miterlimit="1" stroke-width="1" points="1088.4542694091797,186.7100830078125 1182.43505859375,363.4357604980469 1267.4327392578125,189.55453491210938" style="fill:#7fdeaf;stroke:#7fdeaf;"></polygon><polygon stroke-linejoin="round" stroke-miterlimit="1" stroke-width="1" points="1419.9925537109375,60.01678466796875 1088.4542694091797,186.7100830078125 1267.4327392578125,189.55453491210938" style="fill:#5cbfaf;stroke:#5cbfaf;"></polygon><polygon stroke-linejoin="round" stroke-miterlimit="1" stroke-width="1" points="1039.6677856445312,47.0321044921875 1088.4542694091797,186.7100830078125 1419.9925537109375,60.01678466796875" style="fill:#7eddaf;stroke:#7eddaf;"></polygon><polygon stroke-linejoin="round" stroke-miterlimit="1" stroke-width="1" points="1406.4797973632812,-114.80279541015625 1039.6677856445312,47.0321044921875 1419.9925537109375,60.01678466796875" style="fill:#8ae7af;stroke:#8ae7af;"></polygon><polygon stroke-linejoin="round" stroke-miterlimit="1" stroke-width="1" points="1125.139533996582,-86.72247314453125 1039.6677856445312,47.0321044921875 1406.4797973632812,-114.80279541015625" style="fill:#67c9af;stroke:#67c9af;"></polygon><polygon stroke-linejoin="round" stroke-miterlimit="1" stroke-width="1" points="1030.0838775634766,964.9754943847656 1065.7396240234375,1088.2156982421875 1206.7735595703125,1114.3496704101562" style="fill:#ffffaf;stroke:#ffffaf;"></polygon><polygon stroke-linejoin="round" stroke-miterlimit="1" stroke-width="1" points="908.6382064819336,964.9486083984375 1065.7396240234375,1088.2156982421875 1030.0838775634766,964.9754943847656" style="fill:#ffffaf;stroke:#ffffaf;"></polygon><polygon stroke-linejoin="round" stroke-miterlimit="1" stroke-width="1" points="1098.4968719482422,813.7254028320312 908.6382064819336,964.9486083984375 1030.0838775634766,964.9754943847656" style="fill:#ffffaf;stroke:#ffffaf;"></polygon><polygon stroke-linejoin="round" stroke-miterlimit="1" stroke-width="1" points="1119.5646057128906,798.9187622070312 908.6382064819336,964.9486083984375 1098.4968719482422,813.7254028320312" style="fill:#248eaf;stroke:#248eaf;"></polygon><polygon stroke-linejoin="round" stroke-miterlimit="1" stroke-width="1" points="1269.9795532226562,635.0193023681641 1119.5646057128906,798.9187622070312 1098.4968719482422,813.7254028320312" style="fill:#248eaf;stroke:#248eaf;"></polygon><polygon stroke-linejoin="round" stroke-miterlimit="1" stroke-width="1" points="1013.826753616333,664.17333984375 1119.5646057128906,798.9187622070312 1269.9795532226562,635.0193023681641" style="fill:#ffffaf;stroke:#ffffaf;"></polygon><polygon stroke-linejoin="round" stroke-miterlimit="1" stroke-width="1" points="1269.9273986816406,512.3071889877319 1013.826753616333,664.17333984375 1269.9795532226562,635.0193023681641" style="fill:#d3ffaf;stroke:#d3ffaf;"></polygon><polygon stroke-linejoin="round" stroke-miterlimit="1" stroke-width="1" points="971.1470146179199,492.28309774398804 1013.826753616333,664.17333984375 1269.9273986816406,512.3071889877319" style="fill:#b3ffaf;stroke:#b3ffaf;"></polygon><polygon stroke-linejoin="round" stroke-miterlimit="1" stroke-width="1" points="1182.43505859375,363.4357604980469 971.1470146179199,492.28309774398804 1269.9273986816406,512.3071889877319" style="fill:#d2ffaf;stroke:#d2ffaf;"></polygon><polygon stroke-linejoin="round" stroke-miterlimit="1" stroke-width="1" points="1082.2253875732422,341.19273376464844 971.1470146179199,492.28309774398804 1182.43505859375,363.4357604980469" style="fill:#a5ffaf;stroke:#a5ffaf;"></polygon><polygon stroke-linejoin="round" stroke-miterlimit="1" stroke-width="1" points="1088.4542694091797,186.7100830078125 1082.2253875732422,341.19273376464844 1182.43505859375,363.4357604980469" style="fill:#8ae8af;stroke:#8ae8af;"></polygon><polygon stroke-linejoin="round" stroke-miterlimit="1" stroke-width="1" points="1119.8637313842773,213.8741455078125 1082.2253875732422,341.19273376464844 1088.4542694091797,186.7100830078125" style="fill:#248eaf;stroke:#248eaf;"></polygon><polygon stroke-linejoin="round" stroke-miterlimit="1" stroke-width="1" points="1039.6677856445312,47.0321044921875 1119.8637313842773,213.8741455078125 1088.4542694091797,186.7100830078125" style="fill:#248eaf;stroke:#248eaf;"></polygon><polygon stroke-linejoin="round" stroke-miterlimit="1" stroke-width="1" points="941.6682968139648,62.326416015625 1119.8637313842773,213.8741455078125 1039.6677856445312,47.0321044921875" style="fill:#79d9af;stroke:#79d9af;"></polygon><polygon stroke-linejoin="round" stroke-miterlimit="1" stroke-width="1" points="1125.139533996582,-86.72247314453125 941.6682968139648,62.326416015625 1039.6677856445312,47.0321044921875" style="fill:#66c8af;stroke:#66c8af;"></polygon><polygon stroke-linejoin="round" stroke-miterlimit="1" stroke-width="1" points="881.0812835693359,-88.74249267578125 941.6682968139648,62.326416015625 1125.139533996582,-86.72247314453125" style="fill:#6dceaf;stroke:#6dceaf;"></polygon><polygon stroke-linejoin="round" stroke-miterlimit="1" stroke-width="1" points="908.6382064819336,964.9486083984375 738.1383972167969,1085.8946533203125 1065.7396240234375,1088.2156982421875" style="fill:#e5ffaf;stroke:#e5ffaf;"></polygon><polygon stroke-linejoin="round" stroke-miterlimit="1" stroke-width="1" points="770.0749359130859,949.9895935058594 738.1383972167969,1085.8946533203125 908.6382064819336,964.9486083984375" style="fill:#cdffaf;stroke:#cdffaf;"></polygon><polygon stroke-linejoin="round" stroke-miterlimit="1" stroke-width="1" points="1119.5646057128906,798.9187622070312 770.0749359130859,949.9895935058594 908.6382064819336,964.9486083984375" style="fill:#ffffaf;stroke:#ffffaf;"></polygon><polygon stroke-linejoin="round" stroke-miterlimit="1" stroke-width="1" points="903.7726440429688,814.9860229492188 770.0749359130859,949.9895935058594 1119.5646057128906,798.9187622070312" style="fill:#ffffaf;stroke:#ffffaf;"></polygon><polygon stroke-linejoin="round" stroke-miterlimit="1" stroke-width="1" points="1013.826753616333,664.17333984375 903.7726440429688,814.9860229492188 1119.5646057128906,798.9187622070312" style="fill:#ffffaf;stroke:#ffffaf;"></polygon><polygon stroke-linejoin="round" stroke-miterlimit="1" stroke-width="1" points="839.1001129150391,637.9840240478516 903.7726440429688,814.9860229492188 1013.826753616333,664.17333984375" style="fill:#d0ffaf;stroke:#d0ffaf;"></polygon><polygon stroke-linejoin="round" stroke-miterlimit="1" stroke-width="1" points="971.1470146179199,492.28309774398804 839.1001129150391,637.9840240478516 1013.826753616333,664.17333984375" style="fill:#aaffaf;stroke:#aaffaf;"></polygon><polygon stroke-linejoin="round" stroke-miterlimit="1" stroke-width="1" points="967.6029434204102,491.41939067840576 839.1001129150391,637.9840240478516 971.1470146179199,492.28309774398804" style="fill:#ffffaf;stroke:#ffffaf;"></polygon><polygon stroke-linejoin="round" stroke-miterlimit="1" stroke-width="1" points="1082.2253875732422,341.19273376464844 967.6029434204102,491.41939067840576 971.1470146179199,492.28309774398804" style="fill:#ffffaf;stroke:#ffffaf;"></polygon><polygon stroke-linejoin="round" stroke-miterlimit="1" stroke-width="1" points="843.1089172363281,364.8285217285156 967.6029434204102,491.41939067840576 1082.2253875732422,341.19273376464844" style="fill:#79d8af;stroke:#79d8af;"></polygon><polygon stroke-linejoin="round" stroke-miterlimit="1" stroke-width="1" points="1119.8637313842773,213.8741455078125 843.1089172363281,364.8285217285156 1082.2253875732422,341.19273376464844" style="fill:#8ce9af;stroke:#8ce9af;"></polygon><polygon stroke-linejoin="round" stroke-miterlimit="1" stroke-width="1" points="813.1109619140625,185.00662231445312 843.1089172363281,364.8285217285156 1119.8637313842773,213.8741455078125" style="fill:#9bf7af;stroke:#9bf7af;"></polygon><polygon stroke-linejoin="round" stroke-miterlimit="1" stroke-width="1" points="941.6682968139648,62.326416015625 813.1109619140625,185.00662231445312 1119.8637313842773,213.8741455078125" style="fill:#73d3af;stroke:#73d3af;"></polygon><polygon stroke-linejoin="round" stroke-miterlimit="1" stroke-width="1" points="772.4207763671875,41.8846435546875 813.1109619140625,185.00662231445312 941.6682968139648,62.326416015625" style="fill:#43a9af;stroke:#43a9af;"></polygon><polygon stroke-linejoin="round" stroke-miterlimit="1" stroke-width="1" points="881.0812835693359,-88.74249267578125 772.4207763671875,41.8846435546875 941.6682968139648,62.326416015625" style="fill:#70d1af;stroke:#70d1af;"></polygon><polygon stroke-linejoin="round" stroke-miterlimit="1" stroke-width="1" points="816.1537628173828,-87.06707763671875 772.4207763671875,41.8846435546875 881.0812835693359,-88.74249267578125" style="fill:#2791af;stroke:#2791af;"></polygon><polygon stroke-linejoin="round" stroke-miterlimit="1" stroke-width="1" points="770.0749359130859,949.9895935058594 602.9566345214844,1088.5203247070312 738.1383972167969,1085.8946533203125" style="fill:#a5ffaf;stroke:#a5ffaf;"></polygon><polygon stroke-linejoin="round" stroke-miterlimit="1" stroke-width="1" points="712.7695922851562,960.9186401367188 602.9566345214844,1088.5203247070312 770.0749359130859,949.9895935058594" style="fill:#e0ffaf;stroke:#e0ffaf;"></polygon><polygon stroke-linejoin="round" stroke-miterlimit="1" stroke-width="1" points="903.7726440429688,814.9860229492188 712.7695922851562,960.9186401367188 770.0749359130859,949.9895935058594" style="fill:#ffffaf;stroke:#ffffaf;"></polygon><polygon stroke-linejoin="round" stroke-miterlimit="1" stroke-width="1" points="643.1365966796875,802.0156860351562 712.7695922851562,960.9186401367188 903.7726440429688,814.9860229492188" style="fill:#aeffaf;stroke:#aeffaf;"></polygon><polygon stroke-linejoin="round" stroke-miterlimit="1" stroke-width="1" points="839.1001129150391,637.9840240478516 643.1365966796875,802.0156860351562 903.7726440429688,814.9860229492188" style="fill:#b2ffaf;stroke:#b2ffaf;"></polygon><polygon stroke-linejoin="round" stroke-miterlimit="1" stroke-width="1" points="807.5180053710938,662.1138610839844 643.1365966796875,802.0156860351562 839.1001129150391,637.9840240478516" style="fill:#248eaf;stroke:#248eaf;"></polygon><polygon stroke-linejoin="round" stroke-miterlimit="1" stroke-width="1" points="967.6029434204102,491.41939067840576 807.5180053710938,662.1138610839844 839.1001129150391,637.9840240478516" style="fill:#248eaf;stroke:#248eaf;"></polygon><polygon stroke-linejoin="round" stroke-miterlimit="1" stroke-width="1" points="580.0053100585938,514.1596965789795 807.5180053710938,662.1138610839844 967.6029434204102,491.41939067840576" style="fill:#a0fbaf;stroke:#a0fbaf;"></polygon><polygon stroke-linejoin="round" stroke-miterlimit="1" stroke-width="1" points="843.1089172363281,364.8285217285156 580.0053100585938,514.1596965789795 967.6029434204102,491.41939067840576" style="fill:#74d4af;stroke:#74d4af;"></polygon><polygon stroke-linejoin="round" stroke-miterlimit="1" stroke-width="1" points="809.1821594238281,338.7506866455078 580.0053100585938,514.1596965789795 843.1089172363281,364.8285217285156" style="fill:#a6ffaf;stroke:#a6ffaf;"></polygon><polygon stroke-linejoin="round" stroke-miterlimit="1" stroke-width="1" points="813.1109619140625,185.00662231445312 809.1821594238281,338.7506866455078 843.1089172363281,364.8285217285156" style="fill:#9ef9af;stroke:#9ef9af;"></polygon><polygon stroke-linejoin="round" stroke-miterlimit="1" stroke-width="1" points="818.5983428955078,193.26861572265625 809.1821594238281,338.7506866455078 813.1109619140625,185.00662231445312" style="fill:#248eaf;stroke:#248eaf;"></polygon><polygon stroke-linejoin="round" stroke-miterlimit="1" stroke-width="1" points="772.4207763671875,41.8846435546875 818.5983428955078,193.26861572265625 813.1109619140625,185.00662231445312" style="fill:#248eaf;stroke:#248eaf;"></polygon><polygon stroke-linejoin="round" stroke-miterlimit="1" stroke-width="1" points="645.9743041992188,35.03167724609375 818.5983428955078,193.26861572265625 772.4207763671875,41.8846435546875" style="fill:#60c2af;stroke:#60c2af;"></polygon><polygon stroke-linejoin="round" stroke-miterlimit="1" stroke-width="1" points="816.1537628173828,-87.06707763671875 645.9743041992188,35.03167724609375 772.4207763671875,41.8846435546875" style="fill:#70d0af;stroke:#70d0af;"></polygon><polygon stroke-linejoin="round" stroke-miterlimit="1" stroke-width="1" points="795.6707305908203,-114.6583251953125 645.9743041992188,35.03167724609375 816.1537628173828,-87.06707763671875" style="fill:#e8ffaf;stroke:#e8ffaf;"></polygon><polygon stroke-linejoin="round" stroke-miterlimit="1" stroke-width="1" points="712.7695922851562,960.9186401367188 430.189453125,1112.2456665039062 602.9566345214844,1088.5203247070312" style="fill:#92efaf;stroke:#92efaf;"></polygon><polygon stroke-linejoin="round" stroke-miterlimit="1" stroke-width="1" points="621.2058715820312,963.9439392089844 430.189453125,1112.2456665039062 712.7695922851562,960.9186401367188" style="fill:#80dfaf;stroke:#80dfaf;"></polygon><polygon stroke-linejoin="round" stroke-miterlimit="1" stroke-width="1" points="643.1365966796875,802.0156860351562 621.2058715820312,963.9439392089844 712.7695922851562,960.9186401367188" style="fill:#8ce9af;stroke:#8ce9af;"></polygon><polygon stroke-linejoin="round" stroke-miterlimit="1" stroke-width="1" points="448.29278564453125,801.0419311523438 621.2058715820312,963.9439392089844 643.1365966796875,802.0156860351562" style="fill:#74d4af;stroke:#74d4af;"></polygon><polygon stroke-linejoin="round" stroke-miterlimit="1" stroke-width="1" points="807.5180053710938,662.1138610839844 448.29278564453125,801.0419311523438 643.1365966796875,802.0156860351562" style="fill:#6dceaf;stroke:#6dceaf;"></polygon><polygon stroke-linejoin="round" stroke-miterlimit="1" stroke-width="1" points="515.3654174804688,638.1712799072266 448.29278564453125,801.0419311523438 807.5180053710938,662.1138610839844" style="fill:#9cf7af;stroke:#9cf7af;"></polygon><polygon stroke-linejoin="round" stroke-miterlimit="1" stroke-width="1" points="580.0053100585938,514.1596965789795 515.3654174804688,638.1712799072266 807.5180053710938,662.1138610839844" style="fill:#8fecaf;stroke:#8fecaf;"></polygon><polygon stroke-linejoin="round" stroke-miterlimit="1" stroke-width="1" points="503.2917785644531,493.4591007232666 515.3654174804688,638.1712799072266 580.0053100585938,514.1596965789795" style="fill:#9cf7af;stroke:#9cf7af;"></polygon><polygon stroke-linejoin="round" stroke-miterlimit="1" stroke-width="1" points="809.1821594238281,338.7506866455078 503.2917785644531,493.4591007232666 580.0053100585938,514.1596965789795" style="fill:#b1ffaf;stroke:#b1ffaf;"></polygon><polygon stroke-linejoin="round" stroke-miterlimit="1" stroke-width="1" points="669.4961853027344,337.24855041503906 503.2917785644531,493.4591007232666 809.1821594238281,338.7506866455078" style="fill:#aaffaf;stroke:#aaffaf;"></polygon><polygon stroke-linejoin="round" stroke-miterlimit="1" stroke-width="1" points="818.5983428955078,193.26861572265625 669.4961853027344,337.24855041503906 809.1821594238281,338.7506866455078" style="fill:#8eebaf;stroke:#8eebaf;"></polygon><polygon stroke-linejoin="round" stroke-miterlimit="1" stroke-width="1" points="598.4808654785156,208.83120727539062 669.4961853027344,337.24855041503906 818.5983428955078,193.26861572265625" style="fill:#70d0af;stroke:#70d0af;"></polygon><polygon stroke-linejoin="round" stroke-miterlimit="1" stroke-width="1" points="645.9743041992188,35.03167724609375 598.4808654785156,208.83120727539062 818.5983428955078,193.26861572265625" style="fill:#62c4af;stroke:#62c4af;"></polygon><polygon stroke-linejoin="round" stroke-miterlimit="1" stroke-width="1" points="499.55615234375,50.132568359375 598.4808654785156,208.83120727539062 645.9743041992188,35.03167724609375" style="fill:#6dceaf;stroke:#6dceaf;"></polygon><polygon stroke-linejoin="round" stroke-miterlimit="1" stroke-width="1" points="795.6707305908203,-114.6583251953125 499.55615234375,50.132568359375 645.9743041992188,35.03167724609375" style="fill:#acffaf;stroke:#acffaf;"></polygon><polygon stroke-linejoin="round" stroke-miterlimit="1" stroke-width="1" points="618.1505126953125,-106.82452392578125 499.55615234375,50.132568359375 795.6707305908203,-114.6583251953125" style="fill:#248eaf;stroke:#248eaf;"></polygon><polygon stroke-linejoin="round" stroke-miterlimit="1" stroke-width="1" points="621.2058715820312,963.9439392089844 309.257568359375,1092.717041015625 430.189453125,1112.2456665039062" style="fill:#6ccdaf;stroke:#6ccdaf;"></polygon><polygon stroke-linejoin="round" stroke-miterlimit="1" stroke-width="1" points="283.42205810546875,964.973388671875 309.257568359375,1092.717041015625 621.2058715820312,963.9439392089844" style="fill:#72d3af;stroke:#72d3af;"></polygon><polygon stroke-linejoin="round" stroke-miterlimit="1" stroke-width="1" points="448.29278564453125,801.0419311523438 283.42205810546875,964.973388671875 621.2058715820312,963.9439392089844" style="fill:#7cdbaf;stroke:#7cdbaf;"></polygon><polygon stroke-linejoin="round" stroke-miterlimit="1" stroke-width="1" points="503.7670593261719,814.518798828125 283.42205810546875,964.973388671875 448.29278564453125,801.0419311523438" style="fill:#248eaf;stroke:#248eaf;"></polygon><polygon stroke-linejoin="round" stroke-miterlimit="1" stroke-width="1" points="515.3654174804688,638.1712799072266 503.7670593261719,814.518798828125 448.29278564453125,801.0419311523438" style="fill:#248eaf;stroke:#248eaf;"></polygon><polygon stroke-linejoin="round" stroke-miterlimit="1" stroke-width="1" points="287.756103515625,657.8616943359375 503.7670593261719,814.518798828125 515.3654174804688,638.1712799072266" style="fill:#7ddcaf;stroke:#7ddcaf;"></polygon><polygon stroke-linejoin="round" stroke-miterlimit="1" stroke-width="1" points="503.2917785644531,493.4591007232666 287.756103515625,657.8616943359375 515.3654174804688,638.1712799072266" style="fill:#70d1af;stroke:#70d1af;"></polygon><polygon stroke-linejoin="round" stroke-miterlimit="1" stroke-width="1" points="305.18096923828125,485.8827533721924 287.756103515625,657.8616943359375 503.2917785644531,493.4591007232666" style="fill:#57bbaf;stroke:#57bbaf;"></polygon><polygon stroke-linejoin="round" stroke-miterlimit="1" stroke-width="1" points="669.4961853027344,337.24855041503906 305.18096923828125,485.8827533721924 503.2917785644531,493.4591007232666" style="fill:#65c7af;stroke:#65c7af;"></polygon><polygon stroke-linejoin="round" stroke-miterlimit="1" stroke-width="1" points="384.31658935546875,335.5558166503906 305.18096923828125,485.8827533721924 669.4961853027344,337.24855041503906" style="fill:#64c6af;stroke:#64c6af;"></polygon><polygon stroke-linejoin="round" stroke-miterlimit="1" stroke-width="1" points="598.4808654785156,208.83120727539062 384.31658935546875,335.5558166503906 669.4961853027344,337.24855041503906" style="fill:#65c7af;stroke:#65c7af;"></polygon><polygon stroke-linejoin="round" stroke-miterlimit="1" stroke-width="1" points="314.5819091796875,185.04403686523438 384.31658935546875,335.5558166503906 598.4808654785156,208.83120727539062" style="fill:#5abdaf;stroke:#5abdaf;"></polygon><polygon stroke-linejoin="round" stroke-miterlimit="1" stroke-width="1" points="499.55615234375,50.132568359375 314.5819091796875,185.04403686523438 598.4808654785156,208.83120727539062" style="fill:#64c6af;stroke:#64c6af;"></polygon><polygon stroke-linejoin="round" stroke-miterlimit="1" stroke-width="1" points="281.3323974609375,64.66586303710938 314.5819091796875,185.04403686523438 499.55615234375,50.132568359375" style="fill:#51b5af;stroke:#51b5af;"></polygon><polygon stroke-linejoin="round" stroke-miterlimit="1" stroke-width="1" points="618.1505126953125,-106.82452392578125 281.3323974609375,64.66586303710938 499.55615234375,50.132568359375" style="fill:#248eaf;stroke:#248eaf;"></polygon><polygon stroke-linejoin="round" stroke-miterlimit="1" stroke-width="1" points="281.2947998046875,-85.00018310546875 281.3323974609375,64.66586303710938 618.1505126953125,-106.82452392578125" style="fill:#58bbaf;stroke:#58bbaf;"></polygon><polygon stroke-linejoin="round" stroke-miterlimit="1" stroke-width="1" points="283.42205810546875,964.973388671875 314.4937744140625,1091.3037719726562 309.257568359375,1092.717041015625" style="fill:#248eaf;stroke:#248eaf;"></polygon><polygon stroke-linejoin="round" stroke-miterlimit="1" stroke-width="1" points="361.59283447265625,956.83935546875 314.4937744140625,1091.3037719726562 283.42205810546875,964.973388671875" style="fill:#248eaf;stroke:#248eaf;"></polygon><polygon stroke-linejoin="round" stroke-miterlimit="1" stroke-width="1" points="503.7670593261719,814.518798828125 361.59283447265625,956.83935546875 283.42205810546875,964.973388671875" style="fill:#248eaf;stroke:#248eaf;"></polygon><polygon stroke-linejoin="round" stroke-miterlimit="1" stroke-width="1" points="134.86083984375,812.5149536132812 361.59283447265625,956.83935546875 503.7670593261719,814.518798828125" style="fill:#72d2af;stroke:#72d2af;"></polygon><polygon stroke-linejoin="round" stroke-miterlimit="1" stroke-width="1" points="287.756103515625,657.8616943359375 134.86083984375,812.5149536132812 503.7670593261719,814.518798828125" style="fill:#74d4af;stroke:#74d4af;"></polygon><polygon stroke-linejoin="round" stroke-miterlimit="1" stroke-width="1" points="330.738525390625,660.8512878417969 134.86083984375,812.5149536132812 287.756103515625,657.8616943359375" style="fill:#248eaf;stroke:#248eaf;"></polygon><polygon stroke-linejoin="round" stroke-miterlimit="1" stroke-width="1" points="305.18096923828125,485.8827533721924 330.738525390625,660.8512878417969 287.756103515625,657.8616943359375" style="fill:#248eaf;stroke:#248eaf;"></polygon><polygon stroke-linejoin="round" stroke-miterlimit="1" stroke-width="1" points="176.46832275390625,511.59331703186035 330.738525390625,660.8512878417969 305.18096923828125,485.8827533721924" style="fill:#76d6af;stroke:#76d6af;"></polygon><polygon stroke-linejoin="round" stroke-miterlimit="1" stroke-width="1" points="384.31658935546875,335.5558166503906 176.46832275390625,511.59331703186035 305.18096923828125,485.8827533721924" style="fill:#86e4af;stroke:#86e4af;"></polygon><polygon stroke-linejoin="round" stroke-miterlimit="1" stroke-width="1" points="335.27935791015625,343.09710693359375 176.46832275390625,511.59331703186035 384.31658935546875,335.5558166503906" style="fill:#5abdaf;stroke:#5abdaf;"></polygon><polygon stroke-linejoin="round" stroke-miterlimit="1" stroke-width="1" points="314.5819091796875,185.04403686523438 335.27935791015625,343.09710693359375 384.31658935546875,335.5558166503906" style="fill:#5ec1af;stroke:#5ec1af;"></polygon><polygon stroke-linejoin="round" stroke-miterlimit="1" stroke-width="1" points="317.8863525390625,214.37136840820312 335.27935791015625,343.09710693359375 314.5819091796875,185.04403686523438" style="fill:#ffffaf;stroke:#ffffaf;"></polygon><polygon stroke-linejoin="round" stroke-miterlimit="1" stroke-width="1" points="281.3323974609375,64.66586303710938 317.8863525390625,214.37136840820312 314.5819091796875,185.04403686523438" style="fill:#ffffaf;stroke:#ffffaf;"></polygon><polygon stroke-linejoin="round" stroke-miterlimit="1" stroke-width="1" points="302.5194091796875,57.1915283203125 317.8863525390625,214.37136840820312 281.3323974609375,64.66586303710938" style="fill:#83e1af;stroke:#83e1af;"></polygon><polygon stroke-linejoin="round" stroke-miterlimit="1" stroke-width="1" points="281.2947998046875,-85.00018310546875 302.5194091796875,57.1915283203125 281.3323974609375,64.66586303710938" style="fill:#8eebaf;stroke:#8eebaf;"></polygon><polygon stroke-linejoin="round" stroke-miterlimit="1" stroke-width="1" points="336.388916015625,-98.5576171875 302.5194091796875,57.1915283203125 281.2947998046875,-85.00018310546875" style="fill:#3ea5af;stroke:#3ea5af;"></polygon><polygon stroke-linejoin="round" stroke-miterlimit="1" stroke-width="1" points="361.59283447265625,956.83935546875 -4.82989501953125,1087.6527099609375 314.4937744140625,1091.3037719726562" style="fill:#63c6af;stroke:#63c6af;"></polygon><polygon stroke-linejoin="round" stroke-miterlimit="1" stroke-width="1" points="213.9178466796875,941.0876159667969 -4.82989501953125,1087.6527099609375 361.59283447265625,956.83935546875" style="fill:#59bdaf;stroke:#59bdaf;"></polygon><polygon stroke-linejoin="round" stroke-miterlimit="1" stroke-width="1" points="134.86083984375,812.5149536132812 213.9178466796875,941.0876159667969 361.59283447265625,956.83935546875" style="fill:#60c3af;stroke:#60c3af;"></polygon><polygon stroke-linejoin="round" stroke-miterlimit="1" stroke-width="1" points="180.66595458984375,791.1259155273438 213.9178466796875,941.0876159667969 134.86083984375,812.5149536132812" style="fill:#349caf;stroke:#349caf;"></polygon><polygon stroke-linejoin="round" stroke-miterlimit="1" stroke-width="1" points="330.738525390625,660.8512878417969 180.66595458984375,791.1259155273438 134.86083984375,812.5149536132812" style="fill:#c6ffaf;stroke:#c6ffaf;"></polygon><polygon stroke-linejoin="round" stroke-miterlimit="1" stroke-width="1" points="216.25897216796875,664.5747375488281 180.66595458984375,791.1259155273438 330.738525390625,660.8512878417969" style="fill:#69caaf;stroke:#69caaf;"></polygon><polygon stroke-linejoin="round" stroke-miterlimit="1" stroke-width="1" points="176.46832275390625,511.59331703186035 216.25897216796875,664.5747375488281 330.738525390625,660.8512878417969" style="fill:#70d1af;stroke:#70d1af;"></polygon><polygon stroke-linejoin="round" stroke-miterlimit="1" stroke-width="1" points="53.96221923828125,513.5520448684692 216.25897216796875,664.5747375488281 176.46832275390625,511.59331703186035" style="fill:#66c7af;stroke:#66c7af;"></polygon><polygon stroke-linejoin="round" stroke-miterlimit="1" stroke-width="1" points="335.27935791015625,343.09710693359375 53.96221923828125,513.5520448684692 176.46832275390625,511.59331703186035" style="fill:#63c5af;stroke:#63c5af;"></polygon><polygon stroke-linejoin="round" stroke-miterlimit="1" stroke-width="1" points="217.7449951171875,343.63731384277344 53.96221923828125,513.5520448684692 335.27935791015625,343.09710693359375" style="fill:#9ffaaf;stroke:#9ffaaf;"></polygon><polygon stroke-linejoin="round" stroke-miterlimit="1" stroke-width="1" points="317.8863525390625,214.37136840820312 217.7449951171875,343.63731384277344 335.27935791015625,343.09710693359375" style="fill:#94f0af;stroke:#94f0af;"></polygon><polygon stroke-linejoin="round" stroke-miterlimit="1" stroke-width="1" points="107.27886962890625,210.85745239257812 217.7449951171875,343.63731384277344 317.8863525390625,214.37136840820312" style="fill:#4cb1af;stroke:#4cb1af;"></polygon><polygon stroke-linejoin="round" stroke-miterlimit="1" stroke-width="1" points="302.5194091796875,57.1915283203125 107.27886962890625,210.85745239257812 317.8863525390625,214.37136840820312" style="fill:#4fb4af;stroke:#4fb4af;"></polygon><polygon stroke-linejoin="round" stroke-miterlimit="1" stroke-width="1" points="-17.62518310546875,39.032989501953125 107.27886962890625,210.85745239257812 302.5194091796875,57.1915283203125" style="fill:#43a9af;stroke:#43a9af;"></polygon><polygon stroke-linejoin="round" stroke-miterlimit="1" stroke-width="1" points="336.388916015625,-98.5576171875 -17.62518310546875,39.032989501953125 302.5194091796875,57.1915283203125" style="fill:#41a8af;stroke:#41a8af;"></polygon><polygon stroke-linejoin="round" stroke-miterlimit="1" stroke-width="1" points="120.04254150390625,-87.09136962890625 -17.62518310546875,39.032989501953125 336.388916015625,-98.5576171875" style="fill:#6ecfaf;stroke:#6ecfaf;"></polygon><polygon stroke-linejoin="round" stroke-miterlimit="1" stroke-width="1" points="213.9178466796875,941.0876159667969 60.711669921875,1114.4330444335938 -4.82989501953125,1087.6527099609375" style="fill:#248eaf;stroke:#248eaf;"></polygon><polygon stroke-linejoin="round" stroke-miterlimit="1" stroke-width="1" points="22.3516845703125,963.6254272460938 60.711669921875,1114.4330444335938 213.9178466796875,941.0876159667969" style="fill:#66c7af;stroke:#66c7af;"></polygon><polygon stroke-linejoin="round" stroke-miterlimit="1" stroke-width="1" points="180.66595458984375,791.1259155273438 22.3516845703125,963.6254272460938 213.9178466796875,941.0876159667969" style="fill:#68caaf;stroke:#68caaf;"></polygon><polygon stroke-linejoin="round" stroke-miterlimit="1" stroke-width="1" points="-150.445068359375,806.697265625 22.3516845703125,963.6254272460938 180.66595458984375,791.1259155273438" style="fill:#56b9af;stroke:#56b9af;"></polygon><polygon stroke-linejoin="round" stroke-miterlimit="1" stroke-width="1" points="216.25897216796875,664.5747375488281 -150.445068359375,806.697265625 180.66595458984375,791.1259155273438" style="fill:#53b7af;stroke:#53b7af;"></polygon><polygon stroke-linejoin="round" stroke-miterlimit="1" stroke-width="1" points="68.086181640625,637.1343078613281 -150.445068359375,806.697265625 216.25897216796875,664.5747375488281" style="fill:#5fc2af;stroke:#5fc2af;"></polygon><polygon stroke-linejoin="round" stroke-miterlimit="1" stroke-width="1" points="53.96221923828125,513.5520448684692 68.086181640625,637.1343078613281 216.25897216796875,664.5747375488281" style="fill:#62c4af;stroke:#62c4af;"></polygon><polygon stroke-linejoin="round" stroke-miterlimit="1" stroke-width="1" points="-73.943359375,493.6206593513489 68.086181640625,637.1343078613281 53.96221923828125,513.5520448684692" style="fill:#46acaf;stroke:#46acaf;"></polygon><polygon stroke-linejoin="round" stroke-miterlimit="1" stroke-width="1" points="217.7449951171875,343.63731384277344 -73.943359375,493.6206593513489 53.96221923828125,513.5520448684692" style="fill:#44aaaf;stroke:#44aaaf;"></polygon><polygon stroke-linejoin="round" stroke-miterlimit="1" stroke-width="1" points="-101.6326904296875,353.0086364746094 -73.943359375,493.6206593513489 217.7449951171875,343.63731384277344" style="fill:#68c9af;stroke:#68c9af;"></polygon><polygon stroke-linejoin="round" stroke-miterlimit="1" stroke-width="1" points="107.27886962890625,210.85745239257812 -101.6326904296875,353.0086364746094 217.7449951171875,343.63731384277344" style="fill:#4db2af;stroke:#4db2af;"></polygon><polygon stroke-linejoin="round" stroke-miterlimit="1" stroke-width="1" points="-9.52130126953125,185.0076904296875 -101.6326904296875,353.0086364746094 107.27886962890625,210.85745239257812" style="fill:#40a6af;stroke:#40a6af;"></polygon><polygon stroke-linejoin="round" stroke-miterlimit="1" stroke-width="1" points="-17.62518310546875,39.032989501953125 -9.52130126953125,185.0076904296875 107.27886962890625,210.85745239257812" style="fill:#44aaaf;stroke:#44aaaf;"></polygon><polygon stroke-linejoin="round" stroke-miterlimit="1" stroke-width="1" points="-30.8653564453125,59.815155029296875 -9.52130126953125,185.0076904296875 -17.62518310546875,39.032989501953125" style="fill:#f2ffaf;stroke:#f2ffaf;"></polygon><polygon stroke-linejoin="round" stroke-miterlimit="1" stroke-width="1" points="120.04254150390625,-87.09136962890625 -30.8653564453125,59.815155029296875 -17.62518310546875,39.032989501953125" style="fill:#ffffaf;stroke:#ffffaf;"></polygon><polygon stroke-linejoin="round" stroke-miterlimit="1" stroke-width="1" points="-124.6365966796875,-90.0078125 -30.8653564453125,59.815155029296875 120.04254150390625,-87.09136962890625" style="fill:#4db1af;stroke:#4db1af;"></polygon><polygon stroke-linejoin="round" stroke-miterlimit="1" stroke-width="1" points="22.3516845703125,963.6254272460938 -113.7010498046875,1086.0096435546875 60.711669921875,1114.4330444335938" style="fill:#60c2af;stroke:#60c2af;"></polygon><polygon stroke-linejoin="round" stroke-miterlimit="1" stroke-width="1" points="-160.378173828125,937.442626953125 -113.7010498046875,1086.0096435546875 22.3516845703125,963.6254272460938" style="fill:#54b8af;stroke:#54b8af;"></polygon><polygon stroke-linejoin="round" stroke-miterlimit="1" stroke-width="1" points="-150.445068359375,806.697265625 -160.378173828125,937.442626953125 22.3516845703125,963.6254272460938" style="fill:#54b8af;stroke:#54b8af;"></polygon><polygon stroke-linejoin="round" stroke-miterlimit="1" stroke-width="1" points="-132.413818359375,795.8381042480469 -160.378173828125,937.442626953125 -150.445068359375,806.697265625" style="fill:#248eaf;stroke:#248eaf;"></polygon><polygon stroke-linejoin="round" stroke-miterlimit="1" stroke-width="1" points="68.086181640625,637.1343078613281 -132.413818359375,795.8381042480469 -150.445068359375,806.697265625" style="fill:#248eaf;stroke:#248eaf;"></polygon><polygon stroke-linejoin="round" stroke-miterlimit="1" stroke-width="1" points="-80.11181640625,638.5130767822266 -132.413818359375,795.8381042480469 68.086181640625,637.1343078613281" style="fill:#72d2af;stroke:#72d2af;"></polygon><polygon stroke-linejoin="round" stroke-miterlimit="1" stroke-width="1" points="-73.943359375,493.6206593513489 -80.11181640625,638.5130767822266 68.086181640625,637.1343078613281" style="fill:#66c7af;stroke:#66c7af;"></polygon><polygon stroke-linejoin="round" stroke-miterlimit="1" stroke-width="1" points="-168.9173583984375,512.837893486023 -80.11181640625,638.5130767822266 -73.943359375,493.6206593513489" style="fill:#7cdbaf;stroke:#7cdbaf;"></polygon><polygon stroke-linejoin="round" stroke-miterlimit="1" stroke-width="1" points="-101.6326904296875,353.0086364746094 -168.9173583984375,512.837893486023 -73.943359375,493.6206593513489" style="fill:#99f5af;stroke:#99f5af;"></polygon><polygon stroke-linejoin="round" stroke-miterlimit="1" stroke-width="1" points="-261.614013671875,348.16908264160156 -168.9173583984375,512.837893486023 -101.6326904296875,353.0086364746094" style="fill:#3ba2af;stroke:#3ba2af;"></polygon><polygon stroke-linejoin="round" stroke-miterlimit="1" stroke-width="1" points="-9.52130126953125,185.0076904296875 -261.614013671875,348.16908264160156 -101.6326904296875,353.0086364746094" style="fill:#319aaf;stroke:#319aaf;"></polygon><polygon stroke-linejoin="round" stroke-miterlimit="1" stroke-width="1" points="-122.43701171875,214.3492431640625 -261.614013671875,348.16908264160156 -9.52130126953125,185.0076904296875" style="fill:#6bcdaf;stroke:#6bcdaf;"></polygon><polygon stroke-linejoin="round" stroke-miterlimit="1" stroke-width="1" points="-30.8653564453125,59.815155029296875 -122.43701171875,214.3492431640625 -9.52130126953125,185.0076904296875" style="fill:#64c6af;stroke:#64c6af;"></polygon><polygon stroke-linejoin="round" stroke-miterlimit="1" stroke-width="1" points="-142.5399169921875,37.436981201171875 -122.43701171875,214.3492431640625 -30.8653564453125,59.815155029296875" style="fill:#4cb1af;stroke:#4cb1af;"></polygon><polygon stroke-linejoin="round" stroke-miterlimit="1" stroke-width="1" points="-124.6365966796875,-90.0078125 -142.5399169921875,37.436981201171875 -30.8653564453125,59.815155029296875" style="fill:#4bb0af;stroke:#4bb0af;"></polygon><polygon stroke-linejoin="round" stroke-miterlimit="1" stroke-width="1" points="-80.070556640625,-111.35382080078125 -142.5399169921875,37.436981201171875 -124.6365966796875,-90.0078125" style="fill:#248eaf;stroke:#248eaf;"></polygon></svg>