
      <svg xmlns="http://www.w3.org/2000/svg" version="1.1" width="2000" height="1000" style="display: block;"><polygon stroke-linejoin="round" stroke-miterlimit="1" stroke-width="1" points="2295.8646240234375,936.6846008300781 2169.3714599609375,1085.0000610351562 2270.87158203125,1096.1900024414062" style="fill:#78d8af;stroke:#78d8af;"></polygon><polygon stroke-linejoin="round" stroke-miterlimit="1" stroke-width="1" points="2132.6258544921875,935.1992797851562 2169.3714599609375,1085.0000610351562 2295.8646240234375,936.6846008300781" style="fill:#64c6af;stroke:#64c6af;"></polygon><polygon stroke-linejoin="round" stroke-miterlimit="1" stroke-width="1" points="2267.713134765625,791.7978515625 2132.6258544921875,935.1992797851562 2295.8646240234375,936.6846008300781" style="fill:#61c3af;stroke:#61c3af;"></polygon><polygon stroke-linejoin="round" stroke-miterlimit="1" stroke-width="1" points="2090.67822265625,789.7421264648438 2132.6258544921875,935.1992797851562 2267.713134765625,791.7978515625" style="fill:#7eddaf;stroke:#7eddaf;"></polygon><polygon stroke-linejoin="round" stroke-miterlimit="1" stroke-width="1" points="2085.7056884765625,662.0672302246094 2090.67822265625,789.7421264648438 2267.713134765625,791.7978515625" style="fill:#80deaf;stroke:#80deaf;"></polygon><polygon stroke-linejoin="round" stroke-miterlimit="1" stroke-width="1" points="2096.554443359375,663.6893920898438 2090.67822265625,789.7421264648438 2085.7056884765625,662.0672302246094" style="fill:#ffffaf;stroke:#ffffaf;"></polygon><polygon stroke-linejoin="round" stroke-miterlimit="1" stroke-width="1" points="2082.7027587890625,486.35205268859863 2096.554443359375,663.6893920898438 2085.7056884765625,662.0672302246094" style="fill:#ffffaf;stroke:#ffffaf;"></polygon><polygon stroke-linejoin="round" stroke-miterlimit="1" stroke-width="1" points="1934.6118774414062,512.0902719497681 2096.554443359375,663.6893920898438 2082.7027587890625,486.35205268859863" style="fill:#59bcaf;stroke:#59bcaf;"></polygon><polygon stroke-linejoin="round" stroke-miterlimit="1" stroke-width="1" points="2091.49169921875,335.415283203125 1934.6118774414062,512.0902719497681 2082.7027587890625,486.35205268859863" style="fill:#5abdaf;stroke:#5abdaf;"></polygon><polygon stroke-linejoin="round" stroke-miterlimit="1" stroke-width="1" points="2093.831787109375,339.7563781738281 1934.6118774414062,512.0902719497681 2091.49169921875,335.415283203125" style="fill:#248eaf;stroke:#248eaf;"></polygon><polygon stroke-linejoin="round" stroke-miterlimit="1" stroke-width="1" points="2108.966064453125,214.4569091796875 2093.831787109375,339.7563781738281 2091.49169921875,335.415283203125" style="fill:#248eaf;stroke:#248eaf;"></polygon><polygon stroke-linejoin="round" stroke-miterlimit="1" stroke-width="1" points="1955.4659423828125,211.58001708984375 2093.831787109375,339.7563781738281 2108.966064453125,214.4569091796875" style="fill:#6ecfaf;stroke:#6ecfaf;"></polygon><polygon stroke-linejoin="round" stroke-miterlimit="1" stroke-width="1" points="2090.6851806640625,42.370635986328125 1955.4659423828125,211.58001708984375 2108.966064453125,214.4569091796875" style="fill:#6ccdaf;stroke:#6ccdaf;"></polygon><polygon stroke-linejoin="round" stroke-miterlimit="1" stroke-width="1" points="1960.2161865234375,38.2952880859375 1955.4659423828125,211.58001708984375 2090.6851806640625,42.370635986328125" style="fill:#6acbaf;stroke:#6acbaf;"></polygon><polygon stroke-linejoin="round" stroke-miterlimit="1" stroke-width="1" points="2089.9576416015625,-114.89935302734375 1960.2161865234375,38.2952880859375 2090.6851806640625,42.370635986328125" style="fill:#5bbeaf;stroke:#5bbeaf;"></polygon><polygon stroke-linejoin="round" stroke-miterlimit="1" stroke-width="1" points="2020.27685546875,-106.43707275390625 1960.2161865234375,38.2952880859375 2089.9576416015625,-114.89935302734375" style="fill:#55b9af;stroke:#55b9af;"></polygon><polygon stroke-linejoin="round" stroke-miterlimit="1" stroke-width="1" points="2132.6258544921875,935.1992797851562 1780.0017700195312,1112.7041625976562 2169.3714599609375,1085.0000610351562" style="fill:#6ccdaf;stroke:#6ccdaf;"></polygon><polygon stroke-linejoin="round" stroke-miterlimit="1" stroke-width="1" points="1930.3199462890625,962.0401611328125 1780.0017700195312,1112.7041625976562 2132.6258544921875,935.1992797851562" style="fill:#7eddaf;stroke:#7eddaf;"></polygon><polygon stroke-linejoin="round" stroke-miterlimit="1" stroke-width="1" points="2090.67822265625,789.7421264648438 1930.3199462890625,962.0401611328125 2132.6258544921875,935.1992797851562" style="fill:#6ecfaf;stroke:#6ecfaf;"></polygon><polygon stroke-linejoin="round" stroke-miterlimit="1" stroke-width="1" points="1854.2384033203125,810.7781372070312 1930.3199462890625,962.0401611328125 2090.67822265625,789.7421264648438" style="fill:#74d4af;stroke:#74d4af;"></polygon><polygon stroke-linejoin="round" stroke-miterlimit="1" stroke-width="1" points="2096.554443359375,663.6893920898438 1854.2384033203125,810.7781372070312 2090.67822265625,789.7421264648438" style="fill:#6dceaf;stroke:#6dceaf;"></polygon><polygon stroke-linejoin="round" stroke-miterlimit="1" stroke-width="1" points="1893.4680786132812,645.3349456787109 1854.2384033203125,810.7781372070312 2096.554443359375,663.6893920898438" style="fill:#66c8af;stroke:#66c8af;"></polygon><polygon stroke-linejoin="round" stroke-miterlimit="1" stroke-width="1" points="1934.6118774414062,512.0902719497681 1893.4680786132812,645.3349456787109 2096.554443359375,663.6893920898438" style="fill:#5dc0af;stroke:#5dc0af;"></polygon><polygon stroke-linejoin="round" stroke-miterlimit="1" stroke-width="1" points="1836.36767578125,493.8086967468262 1893.4680786132812,645.3349456787109 1934.6118774414062,512.0902719497681" style="fill:#5ec1af;stroke:#5ec1af;"></polygon><polygon stroke-linejoin="round" stroke-miterlimit="1" stroke-width="1" points="2093.831787109375,339.7563781738281 1836.36767578125,493.8086967468262 1934.6118774414062,512.0902719497681" style="fill:#6ccdaf;stroke:#6ccdaf;"></polygon><polygon stroke-linejoin="round" stroke-miterlimit="1" stroke-width="1" points="2015.6513061523438,337.1032257080078 1836.36767578125,493.8086967468262 2093.831787109375,339.7563781738281" style="fill:#69caaf;stroke:#69caaf;"></polygon><polygon stroke-linejoin="round" stroke-miterlimit="1" stroke-width="1" points="1955.4659423828125,211.58001708984375 2015.6513061523438,337.1032257080078 2093.831787109375,339.7563781738281" style="fill:#6dceaf;stroke:#6dceaf;"></polygon><polygon stroke-linejoin="round" stroke-miterlimit="1" stroke-width="1" points="1821.3173217773438,188.6610107421875 2015.6513061523438,337.1032257080078 1955.4659423828125,211.58001708984375" style="fill:#39a0af;stroke:#39a0af;"></polygon><polygon stroke-linejoin="round" stroke-miterlimit="1" stroke-width="1" points="1960.2161865234375,38.2952880859375 1821.3173217773438,188.6610107421875 1955.4659423828125,211.58001708984375" style="fill:#55b9af;stroke:#55b9af;"></polygon><polygon stroke-linejoin="round" stroke-miterlimit="1" stroke-width="1" points="1794.1102294921875,49.8731689453125 1821.3173217773438,188.6610107421875 1960.2161865234375,38.2952880859375" style="fill:#55b8af;stroke:#55b8af;"></polygon><polygon stroke-linejoin="round" stroke-miterlimit="1" stroke-width="1" points="2020.27685546875,-106.43707275390625 1794.1102294921875,49.8731689453125 1960.2161865234375,38.2952880859375" style="fill:#63c6af;stroke:#63c6af;"></polygon><polygon stroke-linejoin="round" stroke-miterlimit="1" stroke-width="1" points="1915.0980224609375,-97.184326171875 1794.1102294921875,49.8731689453125 2020.27685546875,-106.43707275390625" style="fill:#52b7af;stroke:#52b7af;"></polygon><polygon stroke-linejoin="round" stroke-miterlimit="1" stroke-width="1" points="1930.3199462890625,962.0401611328125 1642.3163452148438,1114.62109375 1780.0017700195312,1112.7041625976562" style="fill:#96f2af;stroke:#96f2af;"></polygon><polygon stroke-linejoin="round" stroke-miterlimit="1" stroke-width="1" points="1862.8963012695312,935.1853332519531 1642.3163452148438,1114.62109375 1930.3199462890625,962.0401611328125" style="fill:#64c6af;stroke:#64c6af;"></polygon><polygon stroke-linejoin="round" stroke-miterlimit="1" stroke-width="1" points="1854.2384033203125,810.7781372070312 1862.8963012695312,935.1853332519531 1930.3199462890625,962.0401611328125" style="fill:#50b4af;stroke:#50b4af;"></polygon><polygon stroke-linejoin="round" stroke-miterlimit="1" stroke-width="1" points="1831.6177368164062,798.9947814941406 1862.8963012695312,935.1853332519531 1854.2384033203125,810.7781372070312" style="fill:#248eaf;stroke:#248eaf;"></polygon><polygon stroke-linejoin="round" stroke-miterlimit="1" stroke-width="1" points="1893.4680786132812,645.3349456787109 1831.6177368164062,798.9947814941406 1854.2384033203125,810.7781372070312" style="fill:#248eaf;stroke:#248eaf;"></polygon><polygon stroke-linejoin="round" stroke-miterlimit="1" stroke-width="1" points="1764.9147338867188,660.1346130371094 1831.6177368164062,798.9947814941406 1893.4680786132812,645.3349456787109" style="fill:#89e6af;stroke:#89e6af;"></polygon><polygon stroke-linejoin="round" stroke-miterlimit="1" stroke-width="1" points="1836.36767578125,493.8086967468262 1764.9147338867188,660.1346130371094 1893.4680786132812,645.3349456787109" style="fill:#8ae8af;stroke:#8ae8af;"></polygon><polygon stroke-linejoin="round" stroke-miterlimit="1" stroke-width="1" points="1630.009521484375,488.22919368743896 1764.9147338867188,660.1346130371094 1836.36767578125,493.8086967468262" style="fill:#9af6af;stroke:#9af6af;"></polygon><polygon stroke-linejoin="round" stroke-miterlimit="1" stroke-width="1" points="2015.6513061523438,337.1032257080078 1630.009521484375,488.22919368743896 1836.36767578125,493.8086967468262" style="fill:#76d6af;stroke:#76d6af;"></polygon><polygon stroke-linejoin="round" stroke-miterlimit="1" stroke-width="1" points="1630.189208984375,335.0712432861328 1630.009521484375,488.22919368743896 2015.6513061523438,337.1032257080078" style="fill:#82e0af;stroke:#82e0af;"></polygon><polygon stroke-linejoin="round" stroke-miterlimit="1" stroke-width="1" points="1821.3173217773438,188.6610107421875 1630.189208984375,335.0712432861328 2015.6513061523438,337.1032257080078" style="fill:#7bdbaf;stroke:#7bdbaf;"></polygon><polygon stroke-linejoin="round" stroke-miterlimit="1" stroke-width="1" points="1639.30615234375,186.79537963867188 1630.189208984375,335.0712432861328 1821.3173217773438,188.6610107421875" style="fill:#7eddaf;stroke:#7eddaf;"></polygon><polygon stroke-linejoin="round" stroke-miterlimit="1" stroke-width="1" points="1794.1102294921875,49.8731689453125 1639.30615234375,186.79537963867188 1821.3173217773438,188.6610107421875" style="fill:#7fddaf;stroke:#7fddaf;"></polygon><polygon stroke-linejoin="round" stroke-miterlimit="1" stroke-width="1" points="1822.8696899414062,64.67276000976562 1639.30615234375,186.79537963867188 1794.1102294921875,49.8731689453125" style="fill:#248eaf;stroke:#248eaf;"></polygon><polygon stroke-linejoin="round" stroke-miterlimit="1" stroke-width="1" points="1915.0980224609375,-97.184326171875 1822.8696899414062,64.67276000976562 1794.1102294921875,49.8731689453125" style="fill:#248eaf;stroke:#248eaf;"></polygon><polygon stroke-linejoin="round" stroke-miterlimit="1" stroke-width="1" points="1860.7726440429688,-98.093017578125 1822.8696899414062,64.67276000976562 1915.0980224609375,-97.184326171875" style="fill:#5dc0af;stroke:#5dc0af;"></polygon><polygon stroke-linejoin="round" stroke-miterlimit="1" stroke-width="1" points="1862.8963012695312,935.1853332519531 1509.3428344726562,1109.9668579101562 1642.3163452148438,1114.62109375" style="fill:#94f0af;stroke:#94f0af;"></polygon><polygon stroke-linejoin="round" stroke-miterlimit="1" stroke-width="1" points="1682.8430786132812,955.0093688964844 1509.3428344726562,1109.9668579101562 1862.8963012695312,935.1853332519531" style="fill:#b1ffaf;stroke:#b1ffaf;"></polygon><polygon stroke-linejoin="round" stroke-miterlimit="1" stroke-width="1" points="1831.6177368164062,798.9947814941406 1682.8430786132812,955.0093688964844 1862.8963012695312,935.1853332519531" style="fill:#93f0af;stroke:#93f0af;"></polygon><polygon stroke-linejoin="round" stroke-miterlimit="1" stroke-width="1" points="1507.9019775390625,808.5518493652344 1682.8430786132812,955.0093688964844 1831.6177368164062,798.9947814941406" style="fill:#a1fcaf;stroke:#a1fcaf;"></polygon><polygon stroke-linejoin="round" stroke-miterlimit="1" stroke-width="1" points="1764.9147338867188,660.1346130371094 1507.9019775390625,808.5518493652344 1831.6177368164062,798.9947814941406" style="fill:#92efaf;stroke:#92efaf;"></polygon><polygon stroke-linejoin="round" stroke-miterlimit="1" stroke-width="1" points="1694.9779052734375,640.2120513916016 1507.9019775390625,808.5518493652344 1764.9147338867188,660.1346130371094" style="fill:#9af6af;stroke:#9af6af;"></polygon><polygon stroke-linejoin="round" stroke-miterlimit="1" stroke-width="1" points="1630.009521484375,488.22919368743896 1694.9779052734375,640.2120513916016 1764.9147338867188,660.1346130371094" style="fill:#acffaf;stroke:#acffaf;"></polygon><polygon stroke-linejoin="round" stroke-miterlimit="1" stroke-width="1" points="1534.1251220703125,514.9921445846558 1694.9779052734375,640.2120513916016 1630.009521484375,488.22919368743896" style="fill:#7cdbaf;stroke:#7cdbaf;"></polygon><polygon stroke-linejoin="round" stroke-miterlimit="1" stroke-width="1" points="1630.189208984375,335.0712432861328 1534.1251220703125,514.9921445846558 1630.009521484375,488.22919368743896" style="fill:#7cdbaf;stroke:#7cdbaf;"></polygon><polygon stroke-linejoin="round" stroke-miterlimit="1" stroke-width="1" points="1516.1256103515625,340.145263671875 1534.1251220703125,514.9921445846558 1630.189208984375,335.0712432861328" style="fill:#7ad9af;stroke:#7ad9af;"></polygon><polygon stroke-linejoin="round" stroke-miterlimit="1" stroke-width="1" points="1639.30615234375,186.79537963867188 1516.1256103515625,340.145263671875 1630.189208984375,335.0712432861328" style="fill:#6ccdaf;stroke:#6ccdaf;"></polygon><polygon stroke-linejoin="round" stroke-miterlimit="1" stroke-width="1" points="1641.2450561523438,208.4757080078125 1516.1256103515625,340.145263671875 1639.30615234375,186.79537963867188" style="fill:#248eaf;stroke:#248eaf;"></polygon><polygon stroke-linejoin="round" stroke-miterlimit="1" stroke-width="1" points="1822.8696899414062,64.67276000976562 1641.2450561523438,208.4757080078125 1639.30615234375,186.79537963867188" style="fill:#248eaf;stroke:#248eaf;"></polygon><polygon stroke-linejoin="round" stroke-miterlimit="1" stroke-width="1" points="1520.6824951171875,60.9227294921875 1641.2450561523438,208.4757080078125 1822.8696899414062,64.67276000976562" style="fill:#7bdaaf;stroke:#7bdaaf;"></polygon><polygon stroke-linejoin="round" stroke-miterlimit="1" stroke-width="1" points="1860.7726440429688,-98.093017578125 1520.6824951171875,60.9227294921875 1822.8696899414062,64.67276000976562" style="fill:#5dc0af;stroke:#5dc0af;"></polygon><polygon stroke-linejoin="round" stroke-miterlimit="1" stroke-width="1" points="1499.4362487792969,-113.0367431640625 1520.6824951171875,60.9227294921875 1860.7726440429688,-98.093017578125" style="fill:#66c8af;stroke:#66c8af;"></polygon><polygon stroke-linejoin="round" stroke-miterlimit="1" stroke-width="1" points="1682.8430786132812,955.0093688964844 1377.4146728515625,1088.603271484375 1509.3428344726562,1109.9668579101562" style="fill:#a8ffaf;stroke:#a8ffaf;"></polygon><polygon stroke-linejoin="round" stroke-miterlimit="1" stroke-width="1" points="1568.5489501953125,947.2690734863281 1377.4146728515625,1088.603271484375 1682.8430786132812,955.0093688964844" style="fill:#86e4af;stroke:#86e4af;"></polygon><polygon stroke-linejoin="round" stroke-miterlimit="1" stroke-width="1" points="1507.9019775390625,808.5518493652344 1568.5489501953125,947.2690734863281 1682.8430786132812,955.0093688964844" style="fill:#84e2af;stroke:#84e2af;"></polygon><polygon stroke-linejoin="round" stroke-miterlimit="1" stroke-width="1" points="1332.8894653320312,791.910888671875 1568.5489501953125,947.2690734863281 1507.9019775390625,808.5518493652344" style="fill:#cdffaf;stroke:#cdffaf;"></polygon><polygon stroke-linejoin="round" stroke-miterlimit="1" stroke-width="1" points="1694.9779052734375,640.2120513916016 1332.8894653320312,791.910888671875 1507.9019775390625,808.5518493652344" style="fill:#b4ffaf;stroke:#b4ffaf;"></polygon><polygon stroke-linejoin="round" stroke-miterlimit="1" stroke-width="1" points="1541.9749145507812,659.8942108154297 1332.8894653320312,791.910888671875 1694.9779052734375,640.2120513916016" style="fill:#abffaf;stroke:#abffaf;"></polygon><polygon stroke-linejoin="round" stroke-miterlimit="1" stroke-width="1" points="1534.1251220703125,514.9921445846558 1541.9749145507812,659.8942108154297 1694.9779052734375,640.2120513916016" style="fill:#96f2af;stroke:#96f2af;"></polygon><polygon stroke-linejoin="round" stroke-miterlimit="1" stroke-width="1" points="1501.2325439453125,506.54642057418823 1541.9749145507812,659.8942108154297 1534.1251220703125,514.9921445846558" style="fill:#6fd0af;stroke:#6fd0af;"></polygon><polygon stroke-linejoin="round" stroke-miterlimit="1" stroke-width="1" points="1516.1256103515625,340.145263671875 1501.2325439453125,506.54642057418823 1534.1251220703125,514.9921445846558" style="fill:#6accaf;stroke:#6accaf;"></polygon><polygon stroke-linejoin="round" stroke-miterlimit="1" stroke-width="1" points="1427.4524536132812,335.01666259765625 1501.2325439453125,506.54642057418823 1516.1256103515625,340.145263671875" style="fill:#a2fcaf;stroke:#a2fcaf;"></polygon><polygon stroke-linejoin="round" stroke-miterlimit="1" stroke-width="1" points="1641.2450561523438,208.4757080078125 1427.4524536132812,335.01666259765625 1516.1256103515625,340.145263671875" style="fill:#62c4af;stroke:#62c4af;"></polygon><polygon stroke-linejoin="round" stroke-miterlimit="1" stroke-width="1" points="1384.03076171875,187.20242309570312 1427.4524536132812,335.01666259765625 1641.2450561523438,208.4757080078125" style="fill:#8ce9af;stroke:#8ce9af;"></polygon><polygon stroke-linejoin="round" stroke-miterlimit="1" stroke-width="1" points="1520.6824951171875,60.9227294921875 1384.03076171875,187.20242309570312 1641.2450561523438,208.4757080078125" style="fill:#6acbaf;stroke:#6acbaf;"></polygon><polygon stroke-linejoin="round" stroke-miterlimit="1" stroke-width="1" points="1564.3359375,45.097564697265625 1384.03076171875,187.20242309570312 1520.6824951171875,60.9227294921875" style="fill:#248eaf;stroke:#248eaf;"></polygon><polygon stroke-linejoin="round" stroke-miterlimit="1" stroke-width="1" points="1499.4362487792969,-113.0367431640625 1564.3359375,45.097564697265625 1520.6824951171875,60.9227294921875" style="fill:#248eaf;stroke:#248eaf;"></polygon><polygon stroke-linejoin="round" stroke-miterlimit="1" stroke-width="1" points="1467.1023559570312,-85.47625732421875 1564.3359375,45.097564697265625 1499.4362487792969,-113.0367431640625" style="fill:#76d6af;stroke:#76d6af;"></polygon><polygon stroke-linejoin="round" stroke-miterlimit="1" stroke-width="1" points="1568.5489501953125,947.2690734863281 1229.0324249267578,1114.7106323242188 1377.4146728515625,1088.603271484375" style="fill:#ffffaf;stroke:#ffffaf;"></polygon><polygon stroke-linejoin="round" stroke-miterlimit="1" stroke-width="1" points="1315.7391052246094,942.7528381347656 1229.0324249267578,1114.7106323242188 1568.5489501953125,947.2690734863281" style="fill:#ffffaf;stroke:#ffffaf;"></polygon><polygon stroke-linejoin="round" stroke-miterlimit="1" stroke-width="1" points="1332.8894653320312,791.910888671875 1315.7391052246094,942.7528381347656 1568.5489501953125,947.2690734863281" style="fill:#ffffaf;stroke:#ffffaf;"></polygon><polygon stroke-linejoin="round" stroke-miterlimit="1" stroke-width="1" points="1183.0830688476562,801.9211120605469 1315.7391052246094,942.7528381347656 1332.8894653320312,791.910888671875" style="fill:#ffffaf;stroke:#ffffaf;"></polygon><polygon stroke-linejoin="round" stroke-miterlimit="1" stroke-width="1" points="1541.9749145507812,659.8942108154297 1183.0830688476562,801.9211120605469 1332.8894653320312,791.910888671875" style="fill:#f5ffaf;stroke:#f5ffaf;"></polygon><polygon stroke-linejoin="round" stroke-miterlimit="1" stroke-width="1" points="1355.3089294433594,662.6200714111328 1183.0830688476562,801.9211120605469 1541.9749145507812,659.8942108154297" style="fill:#eaffaf;stroke:#eaffaf;"></polygon><polygon stroke-linejoin="round" stroke-miterlimit="1" stroke-width="1" points="1501.2325439453125,506.54642057418823 1355.3089294433594,662.6200714111328 1541.9749145507812,659.8942108154297" style="fill:#aeffaf;stroke:#aeffaf;"></polygon><polygon stroke-linejoin="round" stroke-miterlimit="1" stroke-width="1" points="1419.7063598632812,485.0015296936035 1355.3089294433594,662.6200714111328 1501.2325439453125,506.54642057418823" style="fill:#aaffaf;stroke:#aaffaf;"></polygon><polygon stroke-linejoin="round" stroke-miterlimit="1" stroke-width="1" points="1427.4524536132812,335.01666259765625 1419.7063598632812,485.0015296936035 1501.2325439453125,506.54642057418823" style="fill:#67c9af;stroke:#67c9af;"></polygon><polygon stroke-linejoin="round" stroke-miterlimit="1" stroke-width="1" points="1219.0830383300781,335.77093505859375 1419.7063598632812,485.0015296936035 1427.4524536132812,335.01666259765625" style="fill:#6fd0af;stroke:#6fd0af;"></polygon><polygon stroke-linejoin="round" stroke-miterlimit="1" stroke-width="1" points="1384.03076171875,187.20242309570312 1219.0830383300781,335.77093505859375 1427.4524536132812,335.01666259765625" style="fill:#97f3af;stroke:#97f3af;"></polygon><polygon stroke-linejoin="round" stroke-miterlimit="1" stroke-width="1" points="1393.3667297363281,187.13009643554688 1219.0830383300781,335.77093505859375 1384.03076171875,187.20242309570312" style="fill:#248eaf;stroke:#248eaf;"></polygon><polygon stroke-linejoin="round" stroke-miterlimit="1" stroke-width="1" points="1564.3359375,45.097564697265625 1393.3667297363281,187.13009643554688 1384.03076171875,187.20242309570312" style="fill:#248eaf;stroke:#248eaf;"></polygon><polygon stroke-linejoin="round" stroke-miterlimit="1" stroke-width="1" points="1367.99169921875,61.854095458984375 1393.3667297363281,187.13009643554688 1564.3359375,45.097564697265625" style="fill:#74d4af;stroke:#74d4af;"></polygon><polygon stroke-linejoin="round" stroke-miterlimit="1" stroke-width="1" points="1467.1023559570312,-85.47625732421875 1367.99169921875,61.854095458984375 1564.3359375,45.097564697265625" style="fill:#6acbaf;stroke:#6acbaf;"></polygon><polygon stroke-linejoin="round" stroke-miterlimit="1" stroke-width="1" points="1207.4880065917969,-109.31243896484375 1367.99169921875,61.854095458984375 1467.1023559570312,-85.47625732421875" style="fill:#6ccdaf;stroke:#6ccdaf;"></polygon><polygon stroke-linejoin="round" stroke-miterlimit="1" stroke-width="1" points="1315.7391052246094,942.7528381347656 1062.921745300293,1109.2606811523438 1229.0324249267578,1114.7106323242188" style="fill:#ffffaf;stroke:#ffffaf;"></polygon><polygon stroke-linejoin="round" stroke-miterlimit="1" stroke-width="1" points="1054.3912200927734,935.413330078125 1062.921745300293,1109.2606811523438 1315.7391052246094,942.7528381347656" style="fill:#ffffaf;stroke:#ffffaf;"></polygon><polygon stroke-linejoin="round" stroke-miterlimit="1" stroke-width="1" points="1183.0830688476562,801.9211120605469 1054.3912200927734,935.413330078125 1315.7391052246094,942.7528381347656" style="fill:#ffffaf;stroke:#ffffaf;"></polygon><polygon stroke-linejoin="round" stroke-miterlimit="1" stroke-width="1" points="1263.6205444335938,802.4761962890625 1054.3912200927734,935.413330078125 1183.0830688476562,801.9211120605469" style="fill:#248eaf;stroke:#248eaf;"></polygon><polygon stroke-linejoin="round" stroke-miterlimit="1" stroke-width="1" points="1355.3089294433594,662.6200714111328 1263.6205444335938,802.4761962890625 1183.0830688476562,801.9211120605469" style="fill:#248eaf;stroke:#248eaf;"></polygon><polygon stroke-linejoin="round" stroke-miterlimit="1" stroke-width="1" points="1153.9571228027344,644.8136596679688 1263.6205444335938,802.4761962890625 1355.3089294433594,662.6200714111328" style="fill:#ffffaf;stroke:#ffffaf;"></polygon><polygon stroke-linejoin="round" stroke-miterlimit="1" stroke-width="1" points="1419.7063598632812,485.0015296936035 1153.9571228027344,644.8136596679688 1355.3089294433594,662.6200714111328" style="fill:#d7ffaf;stroke:#d7ffaf;"></polygon><polygon stroke-linejoin="round" stroke-miterlimit="1" stroke-width="1" points="1265.0799560546875,488.5470914840698 1153.9571228027344,644.8136596679688 1419.7063598632812,485.0015296936035" style="fill:#b5ffaf;stroke:#b5ffaf;"></polygon><polygon stroke-linejoin="round" stroke-miterlimit="1" stroke-width="1" points="1219.0830383300781,335.77093505859375 1265.0799560546875,488.5470914840698 1419.7063598632812,485.0015296936035" style="fill:#beffaf;stroke:#beffaf;"></polygon><polygon stroke-linejoin="round" stroke-miterlimit="1" stroke-width="1" points="1239.8541259765625,344.2802429199219 1265.0799560546875,488.5470914840698 1219.0830383300781,335.77093505859375" style="fill:#248eaf;stroke:#248eaf;"></polygon><polygon stroke-linejoin="round" stroke-miterlimit="1" stroke-width="1" points="1393.3667297363281,187.13009643554688 1239.8541259765625,344.2802429199219 1219.0830383300781,335.77093505859375" style="fill:#248eaf;stroke:#248eaf;"></polygon><polygon stroke-linejoin="round" stroke-miterlimit="1" stroke-width="1" points="1102.3330612182617,198.10687255859375 1239.8541259765625,344.2802429199219 1393.3667297363281,187.13009643554688" style="fill:#6bccaf;stroke:#6bccaf;"></polygon><polygon stroke-linejoin="round" stroke-miterlimit="1" stroke-width="1" points="1367.99169921875,61.854095458984375 1102.3330612182617,198.10687255859375 1393.3667297363281,187.13009643554688" style="fill:#79d8af;stroke:#79d8af;"></polygon><polygon stroke-linejoin="round" stroke-miterlimit="1" stroke-width="1" points="1034.3213119506836,35.400115966796875 1102.3330612182617,198.10687255859375 1367.99169921875,61.854095458984375" style="fill:#78d7af;stroke:#78d7af;"></polygon><polygon stroke-linejoin="round" stroke-miterlimit="1" stroke-width="1" points="1207.4880065917969,-109.31243896484375 1034.3213119506836,35.400115966796875 1367.99169921875,61.854095458984375" style="fill:#6ecfaf;stroke:#6ecfaf;"></polygon><polygon stroke-linejoin="round" stroke-miterlimit="1" stroke-width="1" points="1054.535743713379,-114.51971435546875 1034.3213119506836,35.400115966796875 1207.4880065917969,-109.31243896484375" style="fill:#67c8af;stroke:#67c8af;"></polygon><polygon stroke-linejoin="round" stroke-miterlimit="1" stroke-width="1" points="1054.3912200927734,935.413330078125 1040.209373474121,1092.8740844726562 1062.921745300293,1109.2606811523438" style="fill:#ffffaf;stroke:#ffffaf;"></polygon><polygon stroke-linejoin="round" stroke-miterlimit="1" stroke-width="1" points="982.7098960876465,959.989013671875 1040.209373474121,1092.8740844726562 1054.3912200927734,935.413330078125" style="fill:#ffffaf;stroke:#ffffaf;"></polygon><polygon stroke-linejoin="round" stroke-miterlimit="1" stroke-width="1" points="1263.6205444335938,802.4761962890625 982.7098960876465,959.989013671875 1054.3912200927734,935.413330078125" style="fill:#ffffaf;stroke:#ffffaf;"></polygon><polygon stroke-linejoin="round" stroke-miterlimit="1" stroke-width="1" points="915.5410308837891,785.1092529296875 982.7098960876465,959.989013671875 1263.6205444335938,802.4761962890625" style="fill:#ffffaf;stroke:#ffffaf;"></polygon><polygon stroke-linejoin="round" stroke-miterlimit="1" stroke-width="1" points="1153.9571228027344,644.8136596679688 915.5410308837891,785.1092529296875 1263.6205444335938,802.4761962890625" style="fill:#ffffaf;stroke:#ffffaf;"></polygon><polygon stroke-linejoin="round" stroke-miterlimit="1" stroke-width="1" points="1068.8844146728516,646.7377319335938 915.5410308837891,785.1092529296875 1153.9571228027344,644.8136596679688" style="fill:#ffffaf;stroke:#ffffaf;"></polygon><polygon stroke-linejoin="round" stroke-miterlimit="1" stroke-width="1" points="1265.0799560546875,488.5470914840698 1068.8844146728516,646.7377319335938 1153.9571228027344,644.8136596679688" style="fill:#eeffaf;stroke:#eeffaf;"></polygon><polygon stroke-linejoin="round" stroke-miterlimit="1" stroke-width="1" points="1094.7178421020508,509.04017543792725 1068.8844146728516,646.7377319335938 1265.0799560546875,488.5470914840698" style="fill:#e4ffaf;stroke:#e4ffaf;"></polygon><polygon stroke-linejoin="round" stroke-miterlimit="1" stroke-width="1" points="1239.8541259765625,344.2802429199219 1094.7178421020508,509.04017543792725 1265.0799560546875,488.5470914840698" style="fill:#bbffaf;stroke:#bbffaf;"></polygon><polygon stroke-linejoin="round" stroke-miterlimit="1" stroke-width="1" points="1071.256851196289,364.7420196533203 1094.7178421020508,509.04017543792725 1239.8541259765625,344.2802429199219" style="fill:#9ffaaf;stroke:#9ffaaf;"></polygon><polygon stroke-linejoin="round" stroke-miterlimit="1" stroke-width="1" points="1102.3330612182617,198.10687255859375 1071.256851196289,364.7420196533203 1239.8541259765625,344.2802429199219" style="fill:#70d0af;stroke:#70d0af;"></polygon><polygon stroke-linejoin="round" stroke-miterlimit="1" stroke-width="1" points="888.9805068969727,193.29251098632812 1071.256851196289,364.7420196533203 1102.3330612182617,198.10687255859375" style="fill:#6bccaf;stroke:#6bccaf;"></polygon><polygon stroke-linejoin="round" stroke-miterlimit="1" stroke-width="1" points="1034.3213119506836,35.400115966796875 888.9805068969727,193.29251098632812 1102.3330612182617,198.10687255859375" style="fill:#79d8af;stroke:#79d8af;"></polygon><polygon stroke-linejoin="round" stroke-miterlimit="1" stroke-width="1" points="1042.9495162963867,53.614654541015625 888.9805068969727,193.29251098632812 1034.3213119506836,35.400115966796875" style="fill:#48adaf;stroke:#48adaf;"></polygon><polygon stroke-linejoin="round" stroke-miterlimit="1" stroke-width="1" points="1054.535743713379,-114.51971435546875 1042.9495162963867,53.614654541015625 1034.3213119506836,35.400115966796875" style="fill:#248eaf;stroke:#248eaf;"></polygon><polygon stroke-linejoin="round" stroke-miterlimit="1" stroke-width="1" points="1115.9629516601562,-105.41131591796875 1042.9495162963867,53.614654541015625 1054.535743713379,-114.51971435546875" style="fill:#248eaf;stroke:#248eaf;"></polygon><polygon stroke-linejoin="round" stroke-miterlimit="1" stroke-width="1" points="982.7098960876465,959.989013671875 764.7496490478516,1113.7316284179688 1040.209373474121,1092.8740844726562" style="fill:#ffffaf;stroke:#ffffaf;"></polygon><polygon stroke-linejoin="round" stroke-miterlimit="1" stroke-width="1" points="731.5450744628906,964.3736267089844 764.7496490478516,1113.7316284179688 982.7098960876465,959.989013671875" style="fill:#e8ffaf;stroke:#e8ffaf;"></polygon><polygon stroke-linejoin="round" stroke-miterlimit="1" stroke-width="1" points="915.5410308837891,785.1092529296875 731.5450744628906,964.3736267089844 982.7098960876465,959.989013671875" style="fill:#ffffaf;stroke:#ffffaf;"></polygon><polygon stroke-linejoin="round" stroke-miterlimit="1" stroke-width="1" points="853.4045562744141,794.9263000488281 731.5450744628906,964.3736267089844 915.5410308837891,785.1092529296875" style="fill:#89e7af;stroke:#89e7af;"></polygon><polygon stroke-linejoin="round" stroke-miterlimit="1" stroke-width="1" points="1068.8844146728516,646.7377319335938 853.4045562744141,794.9263000488281 915.5410308837891,785.1092529296875" style="fill:#8ce9af;stroke:#8ce9af;"></polygon><polygon stroke-linejoin="round" stroke-miterlimit="1" stroke-width="1" points="737.5321350097656,661.8799438476562 853.4045562744141,794.9263000488281 1068.8844146728516,646.7377319335938" style="fill:#f1ffaf;stroke:#f1ffaf;"></polygon><polygon stroke-linejoin="round" stroke-miterlimit="1" stroke-width="1" points="1094.7178421020508,509.04017543792725 737.5321350097656,661.8799438476562 1068.8844146728516,646.7377319335938" style="fill:#e1ffaf;stroke:#e1ffaf;"></polygon><polygon stroke-linejoin="round" stroke-miterlimit="1" stroke-width="1" points="903.8304748535156,487.99246978759766 737.5321350097656,661.8799438476562 1094.7178421020508,509.04017543792725" style="fill:#7fdeaf;stroke:#7fdeaf;"></polygon><polygon stroke-linejoin="round" stroke-miterlimit="1" stroke-width="1" points="1071.256851196289,364.7420196533203 903.8304748535156,487.99246978759766 1094.7178421020508,509.04017543792725" style="fill:#a7ffaf;stroke:#a7ffaf;"></polygon><polygon stroke-linejoin="round" stroke-miterlimit="1" stroke-width="1" points="889.5115509033203,361.1466827392578 903.8304748535156,487.99246978759766 1071.256851196289,364.7420196533203" style="fill:#97f3af;stroke:#97f3af;"></polygon><polygon stroke-linejoin="round" stroke-miterlimit="1" stroke-width="1" points="888.9805068969727,193.29251098632812 889.5115509033203,361.1466827392578 1071.256851196289,364.7420196533203" style="fill:#91eeaf;stroke:#91eeaf;"></polygon><polygon stroke-linejoin="round" stroke-miterlimit="1" stroke-width="1" points="742.8338012695312,199.88034057617188 889.5115509033203,361.1466827392578 888.9805068969727,193.29251098632812" style="fill:#88e6af;stroke:#88e6af;"></polygon><polygon stroke-linejoin="round" stroke-miterlimit="1" stroke-width="1" points="1042.9495162963867,53.614654541015625 742.8338012695312,199.88034057617188 888.9805068969727,193.29251098632812" style="fill:#5ec1af;stroke:#5ec1af;"></polygon><polygon stroke-linejoin="round" stroke-miterlimit="1" stroke-width="1" points="829.5062408447266,42.822601318359375 742.8338012695312,199.88034057617188 1042.9495162963867,53.614654541015625" style="fill:#66c8af;stroke:#66c8af;"></polygon><polygon stroke-linejoin="round" stroke-miterlimit="1" stroke-width="1" points="1115.9629516601562,-105.41131591796875 829.5062408447266,42.822601318359375 1042.9495162963867,53.614654541015625" style="fill:#6bccaf;stroke:#6bccaf;"></polygon><polygon stroke-linejoin="round" stroke-miterlimit="1" stroke-width="1" points="755.9044036865234,-109.0732421875 829.5062408447266,42.822601318359375 1115.9629516601562,-105.41131591796875" style="fill:#69caaf;stroke:#69caaf;"></polygon><polygon stroke-linejoin="round" stroke-miterlimit="1" stroke-width="1" points="731.5450744628906,964.3736267089844 603.8824768066406,1114.9647827148438 764.7496490478516,1113.7316284179688" style="fill:#a4ffaf;stroke:#a4ffaf;"></polygon><polygon stroke-linejoin="round" stroke-miterlimit="1" stroke-width="1" points="818.6161499023438,949.8766784667969 603.8824768066406,1114.9647827148438 731.5450744628906,964.3736267089844" style="fill:#248eaf;stroke:#248eaf;"></polygon><polygon stroke-linejoin="round" stroke-miterlimit="1" stroke-width="1" points="853.4045562744141,794.9263000488281 818.6161499023438,949.8766784667969 731.5450744628906,964.3736267089844" style="fill:#248eaf;stroke:#248eaf;"></polygon><polygon stroke-linejoin="round" stroke-miterlimit="1" stroke-width="1" points="725.4351501464844,806.1311645507812 818.6161499023438,949.8766784667969 853.4045562744141,794.9263000488281" style="fill:#e5ffaf;stroke:#e5ffaf;"></polygon><polygon stroke-linejoin="round" stroke-miterlimit="1" stroke-width="1" points="737.5321350097656,661.8799438476562 725.4351501464844,806.1311645507812 853.4045562744141,794.9263000488281" style="fill:#d5ffaf;stroke:#d5ffaf;"></polygon><polygon stroke-linejoin="round" stroke-miterlimit="1" stroke-width="1" points="819.3450469970703,639.1291046142578 725.4351501464844,806.1311645507812 737.5321350097656,661.8799438476562" style="fill:#248eaf;stroke:#248eaf;"></polygon><polygon stroke-linejoin="round" stroke-miterlimit="1" stroke-width="1" points="903.8304748535156,487.99246978759766 819.3450469970703,639.1291046142578 737.5321350097656,661.8799438476562" style="fill:#248eaf;stroke:#248eaf;"></polygon><polygon stroke-linejoin="round" stroke-miterlimit="1" stroke-width="1" points="654.7184753417969,500.048923317343 819.3450469970703,639.1291046142578 903.8304748535156,487.99246978759766" style="fill:#9df8af;stroke:#9df8af;"></polygon><polygon stroke-linejoin="round" stroke-miterlimit="1" stroke-width="1" points="889.5115509033203,361.1466827392578 654.7184753417969,500.048923317343 903.8304748535156,487.99246978759766" style="fill:#a5ffaf;stroke:#a5ffaf;"></polygon><polygon stroke-linejoin="round" stroke-miterlimit="1" stroke-width="1" points="587.5035705566406,350.1105651855469 654.7184753417969,500.048923317343 889.5115509033203,361.1466827392578" style="fill:#74d4af;stroke:#74d4af;"></polygon><polygon stroke-linejoin="round" stroke-miterlimit="1" stroke-width="1" points="742.8338012695312,199.88034057617188 587.5035705566406,350.1105651855469 889.5115509033203,361.1466827392578" style="fill:#80deaf;stroke:#80deaf;"></polygon><polygon stroke-linejoin="round" stroke-miterlimit="1" stroke-width="1" points="741.1119689941406,185.04293823242188 587.5035705566406,350.1105651855469 742.8338012695312,199.88034057617188" style="fill:#daffaf;stroke:#daffaf;"></polygon><polygon stroke-linejoin="round" stroke-miterlimit="1" stroke-width="1" points="829.5062408447266,42.822601318359375 741.1119689941406,185.04293823242188 742.8338012695312,199.88034057617188" style="fill:#dbffaf;stroke:#dbffaf;"></polygon><polygon stroke-linejoin="round" stroke-miterlimit="1" stroke-width="1" points="625.9615173339844,50.8165283203125 741.1119689941406,185.04293823242188 829.5062408447266,42.822601318359375" style="fill:#7ad9af;stroke:#7ad9af;"></polygon><polygon stroke-linejoin="round" stroke-miterlimit="1" stroke-width="1" points="755.9044036865234,-109.0732421875 625.9615173339844,50.8165283203125 829.5062408447266,42.822601318359375" style="fill:#65c7af;stroke:#65c7af;"></polygon><polygon stroke-linejoin="round" stroke-miterlimit="1" stroke-width="1" points="764.4685211181641,-108.8984375 625.9615173339844,50.8165283203125 755.9044036865234,-109.0732421875" style="fill:#2b94af;stroke:#2b94af;"></polygon><polygon stroke-linejoin="round" stroke-miterlimit="1" stroke-width="1" points="818.6161499023438,949.8766784667969 661.4036254882812,1097.1637573242188 603.8824768066406,1114.9647827148438" style="fill:#248eaf;stroke:#248eaf;"></polygon><polygon stroke-linejoin="round" stroke-miterlimit="1" stroke-width="1" points="498.82720947265625,960.2527160644531 661.4036254882812,1097.1637573242188 818.6161499023438,949.8766784667969" style="fill:#b2ffaf;stroke:#b2ffaf;"></polygon><polygon stroke-linejoin="round" stroke-miterlimit="1" stroke-width="1" points="725.4351501464844,806.1311645507812 498.82720947265625,960.2527160644531 818.6161499023438,949.8766784667969" style="fill:#b9ffaf;stroke:#b9ffaf;"></polygon><polygon stroke-linejoin="round" stroke-miterlimit="1" stroke-width="1" points="668.413330078125,814.3089599609375 498.82720947265625,960.2527160644531 725.4351501464844,806.1311645507812" style="fill:#d1ffaf;stroke:#d1ffaf;"></polygon><polygon stroke-linejoin="round" stroke-miterlimit="1" stroke-width="1" points="819.3450469970703,639.1291046142578 668.413330078125,814.3089599609375 725.4351501464844,806.1311645507812" style="fill:#ebffaf;stroke:#ebffaf;"></polygon><polygon stroke-linejoin="round" stroke-miterlimit="1" stroke-width="1" points="665.8626708984375,635.3493194580078 668.413330078125,814.3089599609375 819.3450469970703,639.1291046142578" style="fill:#7adaaf;stroke:#7adaaf;"></polygon><polygon stroke-linejoin="round" stroke-miterlimit="1" stroke-width="1" points="654.7184753417969,500.048923317343 665.8626708984375,635.3493194580078 819.3450469970703,639.1291046142578" style="fill:#94f0af;stroke:#94f0af;"></polygon><polygon stroke-linejoin="round" stroke-miterlimit="1" stroke-width="1" points="443.72845458984375,514.9987716674805 665.8626708984375,635.3493194580078 654.7184753417969,500.048923317343" style="fill:#94f0af;stroke:#94f0af;"></polygon><polygon stroke-linejoin="round" stroke-miterlimit="1" stroke-width="1" points="587.5035705566406,350.1105651855469 443.72845458984375,514.9987716674805 654.7184753417969,500.048923317343" style="fill:#63c5af;stroke:#63c5af;"></polygon><polygon stroke-linejoin="round" stroke-miterlimit="1" stroke-width="1" points="668.0016174316406,351.5384826660156 443.72845458984375,514.9987716674805 587.5035705566406,350.1105651855469" style="fill:#248eaf;stroke:#248eaf;"></polygon><polygon stroke-linejoin="round" stroke-miterlimit="1" stroke-width="1" points="741.1119689941406,185.04293823242188 668.0016174316406,351.5384826660156 587.5035705566406,350.1105651855469" style="fill:#248eaf;stroke:#248eaf;"></polygon><polygon stroke-linejoin="round" stroke-miterlimit="1" stroke-width="1" points="435.6104736328125,185.71536254882812 668.0016174316406,351.5384826660156 741.1119689941406,185.04293823242188" style="fill:#5cbfaf;stroke:#5cbfaf;"></polygon><polygon stroke-linejoin="round" stroke-miterlimit="1" stroke-width="1" points="625.9615173339844,50.8165283203125 435.6104736328125,185.71536254882812 741.1119689941406,185.04293823242188" style="fill:#7bdaaf;stroke:#7bdaaf;"></polygon><polygon stroke-linejoin="round" stroke-miterlimit="1" stroke-width="1" points="433.52740478515625,58.230560302734375 435.6104736328125,185.71536254882812 625.9615173339844,50.8165283203125" style="fill:#73d3af;stroke:#73d3af;"></polygon><polygon stroke-linejoin="round" stroke-miterlimit="1" stroke-width="1" points="764.4685211181641,-108.8984375 433.52740478515625,58.230560302734375 625.9615173339844,50.8165283203125" style="fill:#4db2af;stroke:#4db2af;"></polygon><polygon stroke-linejoin="round" stroke-miterlimit="1" stroke-width="1" points="666.9822387695312,-95.61602783203125 433.52740478515625,58.230560302734375 764.4685211181641,-108.8984375" style="fill:#5bbeaf;stroke:#5bbeaf;"></polygon><polygon stroke-linejoin="round" stroke-miterlimit="1" stroke-width="1" points="498.82720947265625,960.2527160644531 498.8126220703125,1093.025634765625 661.4036254882812,1097.1637573242188" style="fill:#79d9af;stroke:#79d9af;"></polygon><polygon stroke-linejoin="round" stroke-miterlimit="1" stroke-width="1" points="438.8170166015625,937.1297302246094 498.8126220703125,1093.025634765625 498.82720947265625,960.2527160644531" style="fill:#83e2af;stroke:#83e2af;"></polygon><polygon stroke-linejoin="round" stroke-miterlimit="1" stroke-width="1" points="668.413330078125,814.3089599609375 438.8170166015625,937.1297302246094 498.82720947265625,960.2527160644531" style="fill:#8fecaf;stroke:#8fecaf;"></polygon><polygon stroke-linejoin="round" stroke-miterlimit="1" stroke-width="1" points="297.0491943359375,797.5654296875 438.8170166015625,937.1297302246094 668.413330078125,814.3089599609375" style="fill:#7eddaf;stroke:#7eddaf;"></polygon><polygon stroke-linejoin="round" stroke-miterlimit="1" stroke-width="1" points="665.8626708984375,635.3493194580078 297.0491943359375,797.5654296875 668.413330078125,814.3089599609375" style="fill:#83e1af;stroke:#83e1af;"></polygon><polygon stroke-linejoin="round" stroke-miterlimit="1" stroke-width="1" points="356.04473876953125,661.5053253173828 297.0491943359375,797.5654296875 665.8626708984375,635.3493194580078" style="fill:#77d6af;stroke:#77d6af;"></polygon><polygon stroke-linejoin="round" stroke-miterlimit="1" stroke-width="1" points="443.72845458984375,514.9987716674805 356.04473876953125,661.5053253173828 665.8626708984375,635.3493194580078" style="fill:#8be8af;stroke:#8be8af;"></polygon><polygon stroke-linejoin="round" stroke-miterlimit="1" stroke-width="1" points="517.82568359375,490.8881845474243 356.04473876953125,661.5053253173828 443.72845458984375,514.9987716674805" style="fill:#248eaf;stroke:#248eaf;"></polygon><polygon stroke-linejoin="round" stroke-miterlimit="1" stroke-width="1" points="668.0016174316406,351.5384826660156 517.82568359375,490.8881845474243 443.72845458984375,514.9987716674805" style="fill:#248eaf;stroke:#248eaf;"></polygon><polygon stroke-linejoin="round" stroke-miterlimit="1" stroke-width="1" points="478.4866943359375,344.12025451660156 517.82568359375,490.8881845474243 668.0016174316406,351.5384826660156" style="fill:#69cbaf;stroke:#69cbaf;"></polygon><polygon stroke-linejoin="round" stroke-miterlimit="1" stroke-width="1" points="435.6104736328125,185.71536254882812 478.4866943359375,344.12025451660156 668.0016174316406,351.5384826660156" style="fill:#66c8af;stroke:#66c8af;"></polygon><polygon stroke-linejoin="round" stroke-miterlimit="1" stroke-width="1" points="283.40606689453125,196.75631713867188 478.4866943359375,344.12025451660156 435.6104736328125,185.71536254882812" style="fill:#73d3af;stroke:#73d3af;"></polygon><polygon stroke-linejoin="round" stroke-miterlimit="1" stroke-width="1" points="433.52740478515625,58.230560302734375 283.40606689453125,196.75631713867188 435.6104736328125,185.71536254882812" style="fill:#76d6af;stroke:#76d6af;"></polygon><polygon stroke-linejoin="round" stroke-miterlimit="1" stroke-width="1" points="392.03277587890625,64.99795532226562 283.40606689453125,196.75631713867188 433.52740478515625,58.230560302734375" style="fill:#85e3af;stroke:#85e3af;"></polygon><polygon stroke-linejoin="round" stroke-miterlimit="1" stroke-width="1" points="666.9822387695312,-95.61602783203125 392.03277587890625,64.99795532226562 433.52740478515625,58.230560302734375" style="fill:#73d3af;stroke:#73d3af;"></polygon><polygon stroke-linejoin="round" stroke-miterlimit="1" stroke-width="1" points="329.83355712890625,-85.05645751953125 392.03277587890625,64.99795532226562 666.9822387695312,-95.61602783203125" style="fill:#57bbaf;stroke:#57bbaf;"></polygon><polygon stroke-linejoin="round" stroke-miterlimit="1" stroke-width="1" points="438.8170166015625,937.1297302246094 364.55810546875,1111.9968872070312 498.8126220703125,1093.025634765625" style="fill:#72d2af;stroke:#72d2af;"></polygon><polygon stroke-linejoin="round" stroke-miterlimit="1" stroke-width="1" points="157.521240234375,956.9131469726562 364.55810546875,1111.9968872070312 438.8170166015625,937.1297302246094" style="fill:#63c6af;stroke:#63c6af;"></polygon><polygon stroke-linejoin="round" stroke-miterlimit="1" stroke-width="1" points="297.0491943359375,797.5654296875 157.521240234375,956.9131469726562 438.8170166015625,937.1297302246094" style="fill:#62c4af;stroke:#62c4af;"></polygon><polygon stroke-linejoin="round" stroke-miterlimit="1" stroke-width="1" points="228.09979248046875,785.1622924804688 157.521240234375,956.9131469726562 297.0491943359375,797.5654296875" style="fill:#84e2af;stroke:#84e2af;"></polygon><polygon stroke-linejoin="round" stroke-miterlimit="1" stroke-width="1" points="356.04473876953125,661.5053253173828 228.09979248046875,785.1622924804688 297.0491943359375,797.5654296875" style="fill:#8deaaf;stroke:#8deaaf;"></polygon><polygon stroke-linejoin="round" stroke-miterlimit="1" stroke-width="1" points="355.69927978515625,664.9834136962891 228.09979248046875,785.1622924804688 356.04473876953125,661.5053253173828" style="fill:#248eaf;stroke:#248eaf;"></polygon><polygon stroke-linejoin="round" stroke-miterlimit="1" stroke-width="1" points="517.82568359375,490.8881845474243 355.69927978515625,664.9834136962891 356.04473876953125,661.5053253173828" style="fill:#248eaf;stroke:#248eaf;"></polygon><polygon stroke-linejoin="round" stroke-miterlimit="1" stroke-width="1" points="225.45782470703125,507.9597587585449 355.69927978515625,664.9834136962891 517.82568359375,490.8881845474243" style="fill:#7bdbaf;stroke:#7bdbaf;"></polygon><polygon stroke-linejoin="round" stroke-miterlimit="1" stroke-width="1" points="478.4866943359375,344.12025451660156 225.45782470703125,507.9597587585449 517.82568359375,490.8881845474243" style="fill:#78d8af;stroke:#78d8af;"></polygon><polygon stroke-linejoin="round" stroke-miterlimit="1" stroke-width="1" points="365.40716552734375,353.1850128173828 225.45782470703125,507.9597587585449 478.4866943359375,344.12025451660156" style="fill:#94f0af;stroke:#94f0af;"></polygon><polygon stroke-linejoin="round" stroke-miterlimit="1" stroke-width="1" points="283.40606689453125,196.75631713867188 365.40716552734375,353.1850128173828 478.4866943359375,344.12025451660156" style="fill:#73d4af;stroke:#73d4af;"></polygon><polygon stroke-linejoin="round" stroke-miterlimit="1" stroke-width="1" points="230.140625,211.71051025390625 365.40716552734375,353.1850128173828 283.40606689453125,196.75631713867188" style="fill:#76d6af;stroke:#76d6af;"></polygon><polygon stroke-linejoin="round" stroke-miterlimit="1" stroke-width="1" points="392.03277587890625,64.99795532226562 230.140625,211.71051025390625 283.40606689453125,196.75631713867188" style="fill:#bbffaf;stroke:#bbffaf;"></polygon><polygon stroke-linejoin="round" stroke-miterlimit="1" stroke-width="1" points="295.71417236328125,35.034332275390625 230.140625,211.71051025390625 392.03277587890625,64.99795532226562" style="fill:#4aafaf;stroke:#4aafaf;"></polygon><polygon stroke-linejoin="round" stroke-miterlimit="1" stroke-width="1" points="329.83355712890625,-85.05645751953125 295.71417236328125,35.034332275390625 392.03277587890625,64.99795532226562" style="fill:#4fb3af;stroke:#4fb3af;"></polygon><polygon stroke-linejoin="round" stroke-miterlimit="1" stroke-width="1" points="177.20751953125,-105.58465576171875 295.71417236328125,35.034332275390625 329.83355712890625,-85.05645751953125" style="fill:#43a9af;stroke:#43a9af;"></polygon><polygon stroke-linejoin="round" stroke-miterlimit="1" stroke-width="1" points="157.521240234375,956.9131469726562 39.6368408203125,1110.521240234375 364.55810546875,1111.9968872070312" style="fill:#6ccdaf;stroke:#6ccdaf;"></polygon><polygon stroke-linejoin="round" stroke-miterlimit="1" stroke-width="1" points="-0.84130859375,964.9570617675781 39.6368408203125,1110.521240234375 157.521240234375,956.9131469726562" style="fill:#6bcdaf;stroke:#6bcdaf;"></polygon><polygon stroke-linejoin="round" stroke-miterlimit="1" stroke-width="1" points="228.09979248046875,785.1622924804688 -0.84130859375,964.9570617675781 157.521240234375,956.9131469726562" style="fill:#70d0af;stroke:#70d0af;"></polygon><polygon stroke-linejoin="round" stroke-miterlimit="1" stroke-width="1" points="11.30511474609375,812.3306884765625 -0.84130859375,964.9570617675781 228.09979248046875,785.1622924804688" style="fill:#4db2af;stroke:#4db2af;"></polygon><polygon stroke-linejoin="round" stroke-miterlimit="1" stroke-width="1" points="355.69927978515625,664.9834136962891 11.30511474609375,812.3306884765625 228.09979248046875,785.1622924804688" style="fill:#40a6af;stroke:#40a6af;"></polygon><polygon stroke-linejoin="round" stroke-miterlimit="1" stroke-width="1" points="184.44708251953125,647.0871276855469 11.30511474609375,812.3306884765625 355.69927978515625,664.9834136962891" style="fill:#8fecaf;stroke:#8fecaf;"></polygon><polygon stroke-linejoin="round" stroke-miterlimit="1" stroke-width="1" points="225.45782470703125,507.9597587585449 184.44708251953125,647.0871276855469 355.69927978515625,664.9834136962891" style="fill:#87e5af;stroke:#87e5af;"></polygon><polygon stroke-linejoin="round" stroke-miterlimit="1" stroke-width="1" points="28.56689453125,514.6861476898193 184.44708251953125,647.0871276855469 225.45782470703125,507.9597587585449" style="fill:#4fb4af;stroke:#4fb4af;"></polygon><polygon stroke-linejoin="round" stroke-miterlimit="1" stroke-width="1" points="365.40716552734375,353.1850128173828 28.56689453125,514.6861476898193 225.45782470703125,507.9597587585449" style="fill:#60c2af;stroke:#60c2af;"></polygon><polygon stroke-linejoin="round" stroke-miterlimit="1" stroke-width="1" points="-8.691650390625,348.890380859375 28.56689453125,514.6861476898193 365.40716552734375,353.1850128173828" style="fill:#6ccdaf;stroke:#6ccdaf;"></polygon><polygon stroke-linejoin="round" stroke-miterlimit="1" stroke-width="1" points="230.140625,211.71051025390625 -8.691650390625,348.890380859375 365.40716552734375,353.1850128173828" style="fill:#69cbaf;stroke:#69cbaf;"></polygon><polygon stroke-linejoin="round" stroke-miterlimit="1" stroke-width="1" points="76.406005859375,186.083251953125 -8.691650390625,348.890380859375 230.140625,211.71051025390625" style="fill:#44aaaf;stroke:#44aaaf;"></polygon><polygon stroke-linejoin="round" stroke-miterlimit="1" stroke-width="1" points="295.71417236328125,35.034332275390625 76.406005859375,186.083251953125 230.140625,211.71051025390625" style="fill:#43a9af;stroke:#43a9af;"></polygon><polygon stroke-linejoin="round" stroke-miterlimit="1" stroke-width="1" points="163.730224609375,36.638153076171875 76.406005859375,186.083251953125 295.71417236328125,35.034332275390625" style="fill:#3098af;stroke:#3098af;"></polygon><polygon stroke-linejoin="round" stroke-miterlimit="1" stroke-width="1" points="177.20751953125,-105.58465576171875 163.730224609375,36.638153076171875 295.71417236328125,35.034332275390625" style="fill:#42a8af;stroke:#42a8af;"></polygon><polygon stroke-linejoin="round" stroke-miterlimit="1" stroke-width="1" points="184.2303466796875,-106.595947265625 163.730224609375,36.638153076171875 177.20751953125,-105.58465576171875" style="fill:#ffffaf;stroke:#ffffaf;"></polygon><polygon stroke-linejoin="round" stroke-miterlimit="1" stroke-width="1" points="-0.84130859375,964.9570617675781 -23.53558349609375,1106.3435668945312 39.6368408203125,1110.521240234375" style="fill:#54b8af;stroke:#54b8af;"></polygon><polygon stroke-linejoin="round" stroke-miterlimit="1" stroke-width="1" points="-128.326416015625,940.686767578125 -23.53558349609375,1106.3435668945312 -0.84130859375,964.9570617675781" style="fill:#64c6af;stroke:#64c6af;"></polygon><polygon stroke-linejoin="round" stroke-miterlimit="1" stroke-width="1" points="11.30511474609375,812.3306884765625 -128.326416015625,940.686767578125 -0.84130859375,964.9570617675781" style="fill:#68c9af;stroke:#68c9af;"></polygon><polygon stroke-linejoin="round" stroke-miterlimit="1" stroke-width="1" points="57.1014404296875,809.4633483886719 -128.326416015625,940.686767578125 11.30511474609375,812.3306884765625" style="fill:#248eaf;stroke:#248eaf;"></polygon><polygon stroke-linejoin="round" stroke-miterlimit="1" stroke-width="1" points="184.44708251953125,647.0871276855469 57.1014404296875,809.4633483886719 11.30511474609375,812.3306884765625" style="fill:#248eaf;stroke:#248eaf;"></polygon><polygon stroke-linejoin="round" stroke-miterlimit="1" stroke-width="1" points="-76.6737060546875,636.3554992675781 57.1014404296875,809.4633483886719 184.44708251953125,647.0871276855469" style="fill:#4bb0af;stroke:#4bb0af;"></polygon><polygon stroke-linejoin="round" stroke-miterlimit="1" stroke-width="1" points="28.56689453125,514.6861476898193 -76.6737060546875,636.3554992675781 184.44708251953125,647.0871276855469" style="fill:#44aaaf;stroke:#44aaaf;"></polygon><polygon stroke-linejoin="round" stroke-miterlimit="1" stroke-width="1" points="-166.9876708984375,510.8727731704712 -76.6737060546875,636.3554992675781 28.56689453125,514.6861476898193" style="fill:#6dceaf;stroke:#6dceaf;"></polygon><polygon stroke-linejoin="round" stroke-miterlimit="1" stroke-width="1" points="-8.691650390625,348.890380859375 -166.9876708984375,510.8727731704712 28.56689453125,514.6861476898193" style="fill:#6ecfaf;stroke:#6ecfaf;"></polygon><polygon stroke-linejoin="round" stroke-miterlimit="1" stroke-width="1" points="-99.5478515625,341.2250061035156 -166.9876708984375,510.8727731704712 -8.691650390625,348.890380859375" style="fill:#41a7af;stroke:#41a7af;"></polygon><polygon stroke-linejoin="round" stroke-miterlimit="1" stroke-width="1" points="76.406005859375,186.083251953125 -99.5478515625,341.2250061035156 -8.691650390625,348.890380859375" style="fill:#40a6af;stroke:#40a6af;"></polygon><polygon stroke-linejoin="round" stroke-miterlimit="1" stroke-width="1" points="-147.2662353515625,186.1497802734375 -99.5478515625,341.2250061035156 76.406005859375,186.083251953125" style="fill:#42a8af;stroke:#42a8af;"></polygon><polygon stroke-linejoin="round" stroke-miterlimit="1" stroke-width="1" points="163.730224609375,36.638153076171875 -147.2662353515625,186.1497802734375 76.406005859375,186.083251953125" style="fill:#3aa1af;stroke:#3aa1af;"></polygon><polygon stroke-linejoin="round" stroke-miterlimit="1" stroke-width="1" points="26.0604248046875,55.0670166015625 -147.2662353515625,186.1497802734375 163.730224609375,36.638153076171875" style="fill:#50b4af;stroke:#50b4af;"></polygon><polygon stroke-linejoin="round" stroke-miterlimit="1" stroke-width="1" points="184.2303466796875,-106.595947265625 26.0604248046875,55.0670166015625 163.730224609375,36.638153076171875" style="fill:#64c6af;stroke:#64c6af;"></polygon><polygon stroke-linejoin="round" stroke-miterlimit="1" stroke-width="1" points="-110.7530517578125,-113.82843017578125 26.0604248046875,55.0670166015625 184.2303466796875,-106.595947265625" style="fill:#69caaf;stroke:#69caaf;"></polygon><polygon stroke-linejoin="round" stroke-miterlimit="1" stroke-width="1" points="-128.326416015625,940.686767578125 -319.874755859375,1103.1502685546875 -23.53558349609375,1106.3435668945312" style="fill:#54b8af;stroke:#54b8af;"></polygon><polygon stroke-linejoin="round" stroke-miterlimit="1" stroke-width="1" points="-319.93212890625,935.0020751953125 -319.874755859375,1103.1502685546875 -128.326416015625,940.686767578125" style="fill:#61c3af;stroke:#61c3af;"></polygon><polygon stroke-linejoin="round" stroke-miterlimit="1" stroke-width="1" points="57.1014404296875,809.4633483886719 -319.93212890625,935.0020751953125 -128.326416015625,940.686767578125" style="fill:#69caaf;stroke:#69caaf;"></polygon><polygon stroke-linejoin="round" stroke-miterlimit="1" stroke-width="1" points="-178.5311279296875,786.8366394042969 -319.93212890625,935.0020751953125 57.1014404296875,809.4633483886719" style="fill:#61c3af;stroke:#61c3af;"></polygon><polygon stroke-linejoin="round" stroke-miterlimit="1" stroke-width="1" points="-76.6737060546875,636.3554992675781 -178.5311279296875,786.8366394042969 57.1014404296875,809.4633483886719" style="fill:#64c6af;stroke:#64c6af;"></polygon><polygon stroke-linejoin="round" stroke-miterlimit="1" stroke-width="1" points="-91.67578125,645.214599609375 -178.5311279296875,786.8366394042969 -76.6737060546875,636.3554992675781" style="fill:#fcffaf;stroke:#fcffaf;"></polygon><polygon stroke-linejoin="round" stroke-miterlimit="1" stroke-width="1" points="-166.9876708984375,510.8727731704712 -91.67578125,645.214599609375 -76.6737060546875,636.3554992675781" style="fill:#a3feaf;stroke:#a3feaf;"></polygon><polygon stroke-linejoin="round" stroke-miterlimit="1" stroke-width="1" points="-288.8896484375,498.9890043735504 -91.67578125,645.214599609375 -166.9876708984375,510.8727731704712" style="fill:#44aaaf;stroke:#44aaaf;"></polygon><polygon stroke-linejoin="round" stroke-miterlimit="1" stroke-width="1" points="-99.5478515625,341.2250061035156 -288.8896484375,498.9890043735504 -166.9876708984375,510.8727731704712" style="fill:#3ca3af;stroke:#3ca3af;"></polygon><polygon stroke-linejoin="round" stroke-miterlimit="1" stroke-width="1" points="-194.9991455078125,364.9999084472656 -288.8896484375,498.9890043735504 -99.5478515625,341.2250061035156" style="fill:#258eaf;stroke:#258eaf;"></polygon><polygon stroke-linejoin="round" stroke-miterlimit="1" stroke-width="1" points="-147.2662353515625,186.1497802734375 -194.9991455078125,364.9999084472656 -99.5478515625,341.2250061035156" style="fill:#349caf;stroke:#349caf;"></polygon><polygon stroke-linejoin="round" stroke-miterlimit="1" stroke-width="1" points="-266.880126953125,211.79986572265625 -194.9991455078125,364.9999084472656 -147.2662353515625,186.1497802734375" style="fill:#55b9af;stroke:#55b9af;"></polygon><polygon stroke-linejoin="round" stroke-miterlimit="1" stroke-width="1" points="26.0604248046875,55.0670166015625 -266.880126953125,211.79986572265625 -147.2662353515625,186.1497802734375" style="fill:#57bbaf;stroke:#57bbaf;"></polygon><polygon stroke-linejoin="round" stroke-miterlimit="1" stroke-width="1" points="-289.2392578125,53.823822021484375 -266.880126953125,211.79986572265625 26.0604248046875,55.0670166015625" style="fill:#57baaf;stroke:#57baaf;"></polygon><polygon stroke-linejoin="round" stroke-miterlimit="1" stroke-width="1" points="-110.7530517578125,-113.82843017578125 -289.2392578125,53.823822021484375 26.0604248046875,55.0670166015625" style="fill:#64c6af;stroke:#64c6af;"></polygon><polygon stroke-linejoin="round" stroke-miterlimit="1" stroke-width="1" points="-129.795654296875,-85.09716796875 -289.2392578125,53.823822021484375 -110.7530517578125,-113.82843017578125" style="fill:#248eaf;stroke:#248eaf;"></polygon></svg>